<?xml version="1.0" encoding="UTF-8" standalone="no"?>
<!-- Created with Inkscape (http://www.inkscape.org/) -->

<svg
   version="1.1"
   id="svg226"
   width="733.33331"
   height="1216"
   viewBox="0 0 733.33331 1216"
   sodipodi:docname="bamboo-white.svg"
   inkscape:version="1.2.1 (9c6d41e410, 2022-07-14)"
   xmlns:inkscape="http://www.inkscape.org/namespaces/inkscape"
   xmlns:sodipodi="http://sodipodi.sourceforge.net/DTD/sodipodi-0.dtd"
   xmlns="http://www.w3.org/2000/svg"
   xmlns:svg="http://www.w3.org/2000/svg">
  <defs
     id="defs230" />
  <sodipodi:namedview
     id="namedview228"
     pagecolor="#ffffff"
     bordercolor="#000000"
     borderopacity="0.25"
     inkscape:showpageshadow="2"
     inkscape:pageopacity="0.0"
     inkscape:pagecheckerboard="0"
     inkscape:deskcolor="#d1d1d1"
     showgrid="false"
     inkscape:zoom="0.4564793"
     inkscape:cx="167.58701"
     inkscape:cy="797.40747"
     inkscape:window-width="1920"
     inkscape:window-height="1001"
     inkscape:window-x="-9"
     inkscape:window-y="-9"
     inkscape:window-maximized="1"
     inkscape:current-layer="g232" />
  <g
     inkscape:groupmode="layer"
     inkscape:label="Image"
     id="g232">
    <path
       style="fill:#0b9470;stroke:none;stroke-width:0.333333"
       d="M 121.80932,4.3813597 V 5.714693 h -6.66667 v 1.3333334 h -9.33333 V 8.3813597 H 97.809315 V 9.714693 h -8 v 1.333333 h -8 v 1.333334 h -8 v 1.333333 h -9.33333 v 7.999999 h 1.33333 v 8 h 1.33334 v 8 h 1.33333 v 8 h 1.33333 v 8 h 1.33334 v 9.333334 h 1.33333 v 8 h 1.33333 v 8 h 1.33334 v 8 h 1.33333 v 8 h 1.33333 v 9.333334 h 1.33334 v 8 h 1.33333 v 8 h 1.33333 v 8 h 1.33334 v 8 h 1.33333 v 9.33333 h 1.33333 v 8 h 1.33334 v 8 h 1.33333 v 8 h 1.33333 v 8 h 1.33334 v 8 h 1.33333 v 9.33334 h 1.33333 v 8 h 1.33334 v 8 h 1.33333 v 8 h 1.33333 v 8 h 1.33334 v 9.33333 h 1.333325 v 8 h 1.33334 v 8 h 1.33333 v 8 h 1.33333 v 8 h 1.33334 v 9.33333 h 1.33333 v 8 h 1.33333 v 8 h 1.33334 v 8 h 1.33333 v 8 h 1.33333 v 9.33334 h 1.33334 v 8 h 1.33333 v 8 h 1.33333 v 8 h 1.33334 v 8 h 1.33333 v 9.33333 h 1.33333 v 8 h 1.33334 v 8 h 1.33333 v 8 h 1.33333 v 8 h 1.33334 v 4 h -4 v 1.33333 h -2.66667 v 1.33334 h -1.33333 v 6.66666 h 1.33333 v 1.33334 h 1.33333 v 1.33333 h 10.66667 v -1.33333 h 8 v -1.33334 h 8 v -1.33333 h 9.3333 v -1.33333 h 8 v -1.33334 h 8 v -1.33333 h 8 v -1.33333 h 8 v -1.33334 h 5.3334 v -1.33333 h 1.3333 v -1.33333 h 1.3333 v -5.33334 h -1.3333 v -2.66666 h -2.6667 v -1.33334 h -6.6666 v -5.33333 h -1.3334 v -9.33333 h -1.3333 v -8 h -1.3333 v -8 h -1.3334 v -8 h -1.3333 v -8 h -1.3333 v -9.33334 h -1.3334 v -8 h -1.3333 v -8 h -1.3333 v -8 h -1.3334 v -8 h -1.3333 v -9.33333 h -1.3333 v -8 h -1.3334 v -8 h -1.3333 v -8 h -1.3333 v -8 h -1.3334 v -8 h -1.3333 v -9.33333 h -1.3333 v -8 h -1.3334 v -8 h -1.3333 v -8 h -1.3333 v -8 h -1.3334 v -9.33334 h -1.3333 v -8 h -1.3333 v -8 h -1.3334 v -8 h -1.3333 v -8 h -1.3333 v -9.33333 h -1.3334 v -8 h -1.3333 v -8 h -1.3333 v -8 h -1.3334 v -8 h -1.3333 v -9.33333 h -1.3333 v -8 h -1.3334 v -8.000004 h -1.3333 v -8 h -1.3333 v -8 h -1.3334 v -8 h -1.3333 v -9.333334 h -1.33333 v -8 h -1.33334 v -8 h -1.33333 v -8 h -1.33333 v -8 h -1.33334 v -9.333333 h -1.33333 V 16.38136 h -1.33333 V 8.3813597 h -1.33334 v -4 h -2.66666 M 637.80925,264.38136 v 4 h -1.3333 v 8 h -1.3333 v 8 h -1.3334 v 8 h -1.3333 v 9.33333 h -1.3333 v 8 h -1.3334 v 8 h -1.3333 v 8 h -1.3333 v 8 h -1.3334 v 9.33334 h -1.3333 v 8 h -1.3333 v 8 h -1.3334 v 8 h -1.3333 v 8 h -1.3333 v 9.33333 h -1.3334 v 8 h -1.3333 v 8 h -1.3333 v 8 h -1.3334 v 8 h -1.3333 v 8 h -1.3333 v 9.33333 h -1.3334 v 8 h -1.3333 v 8 h -1.3333 v 8 h -1.3334 v 8 h -1.3333 v 9.33334 h -1.3333 v 8 h -1.3334 v 8 h -1.3333 v 8 h -1.3333 v 8 h -1.3334 v 9.33333 h -1.3333 v 8 h -1.3333 v 8 h -1.3334 v 8 h -1.3333 v 8 h -1.3333 v 9.33333 h -1.3334 v 6.66667 h -5.3333 v 1.33333 h -2.6667 v 6.66667 h 1.3334 v 1.33333 h 5.3333 v 1.33334 h 9.3333 v 1.33333 h 6.6667 v 1.33333 h 9.3333 v 1.33334 h 8 v 1.33333 h 8 v 1.33333 h 12 v -1.33333 h 1.3334 v -5.33333 h -1.3334 v -1.33334 h -2.6666 v -1.33333 h -2.6667 v -2.66667 h 1.3333 v -8 h 1.3334 v -8 h 1.3333 v -9.33333 h 1.3333 v -8 h 1.3334 v -8 h 1.3333 v -8 h 1.3333 v -8 h 1.3334 v -9.33333 h 1.3333 v -8 h 1.3333 v -8 h 1.3334 v -8 h 1.3333 v -8 h 1.3333 v -8 h 1.3334 v -9.33334 h 1.3333 v -8 h 1.3333 v -8 h 1.3334 v -8 h 1.3333 v -8 h 1.3333 v -9.33333 h 1.3334 v -8 h 1.3333 v -8 h 1.3333 v -8 h 1.3334 v -8 h 1.3333 v -9.33333 h 1.3333 v -8 h 1.3334 v -8 h 1.3333 v -8 h 1.3333 v -8 h 1.3334 v -9.33334 h 1.3333 v -8 h 1.3333 v -8 h 1.3334 v -8 h 1.3333 v -8 h 1.3333 v -9.33333 h 1.3334 v -8 h 1.3333 v -8 h -2.6667 v -1.33333 h -8 v -1.33334 h -8 v -1.33333 h -9.3333 v -1.33333 h -8 v -1.33334 h -8 v -1.33333 h -2.6667 m -603.999935,12 v 2.66667 h 1.33334 v 5.33333 h 1.33333 v 5.33333 h 1.33333 v 4 h 1.33334 v 4 h 1.33333 v 4 h 1.33333 v 2.66667 h 1.33334 v 2.66667 h 1.33333 v 2.66666 h 1.33333 v 2.66667 h 1.33334 v 2.66667 h 1.33333 v 1.33333 h 1.33333 v 2.66667 h 1.33334 v 1.33333 h 1.33333 v 2.66667 h -2.66667 v -1.33334 h -2.66666 v -1.33333 h -2.66667 v -1.33333 h -4 v -1.33334 h -4 v -1.33333 h -4 v -1.33333 h -6.66667 v -1.33334 h -6.66666 v -1.33333 H 4.4759846 v 1.33333 h 1.33334 v 1.33334 h 1.33333 v 1.33333 h 1.33333 v 1.33333 h 2.6666704 v 1.33334 h 1.33333 v 1.33333 h 1.33333 v 1.33333 h 1.33334 v 1.33334 h 2.66666 v 1.33333 h 1.33334 v 1.33333 h 2.66666 v 1.33334 h 1.33334 v 1.33333 h 2.66666 v 1.33333 h 1.33334 v 1.33334 h 2.66666 v 1.33333 h 2.66667 v 1.33333 h 2.66667 v 1.33334 h 2.66666 v 1.33333 h 4 v 1.33333 h 2.66667 v 1.33334 h -9.33333 v 1.33333 h -5.33334 v 1.33333 h -4 v 1.33334 h -4 v 1.33333 h -4 v 1.33333 h -4 v 1.33334 h -2.66666 v 1.33333 H 8.4759846 v 1.33333 h -2.66666 v 1.33334 h -2.66667 v 1.33333 H 0.47598465 v 1.33333 h -1.33333 v 1.33334 H 4.4759846 v 1.33333 H 15.142655 v 1.33333 h 18.66666 v -1.33333 h 9.33334 v -1.33333 h 5.33333 v -1.33334 h 5.33333 v -1.33333 h 4 v -1.33333 h 2.66667 v -1.33334 h 2.66667 v -1.33333 h 2.66666 v -1.33333 h 1.33334 v -1.33334 h 2.66666 v -1.33333 h 1.33334 v -1.33333 h 1.33333 v -1.33334 h 1.33333 v -9.33333 h -1.33333 v -6.66667 h -1.33333 v -4 h -1.33334 v -2.66666 h -1.33333 v -4 h -1.33333 v -2.66667 h -1.33334 v -2.66667 h -1.33333 v -1.33333 h -1.33333 v -2.66667 h -1.33334 v -1.33333 h -1.33333 v -2.66667 h -1.33333 v -1.33333 h -1.33334 v -2.66667 h -1.33333 v -1.33333 h -1.33333 v -1.33333 h -1.33334 v -1.33334 h -1.33333 v -1.33333 h -1.33333 v -1.33333 h -1.33334 v -1.33334 h -1.33333 v -1.33333 h -1.33333 v -1.33333 h -1.33334 v -1.33334 h -1.33333 v -1.33333 h -1.33333 v -1.33333 h -1.33334 v -1.33334 h -1.33333 v -1.33333 h -1.33333 v -1.33333 h -2.66667 v -1.33334 h -1.33333 v -1.33333 h -1.33334 m 20,46.66667 v 1.33333 h -1.33333 v -1.33333 h 1.33333 m 141.333335,85.33333 v 1.33333 h -8 v 1.33334 h -6.6667 v 1.33333 h -6.6666 v 1.33333 h -6.6667 v 1.33334 h -5.3333 v 1.33333 h -6.6667 v 1.33333 h -6.6667 v 1.33334 h -6.6666 v 1.33333 h -6.6667 v 1.33333 h -4 v 1.33334 h -4 v 1.33333 h -1.33333 v 8 h 1.33333 v 1.33333 h 2.66667 v 1.33334 h 2.66666 v -1.33334 h 2.66667 v 1.33334 h 1.3333 v 6.66666 h 1.3334 v 5.33334 h 1.3333 v 6.66666 h 1.3333 v 6.66667 h 1.3334 v 6.66667 h 1.3333 v 5.33333 h 1.3333 v 6.66667 h 1.3334 v 6.66666 h 1.3333 v 6.66667 h 1.3333 v 6.66667 h 1.3334 v 5.33333 h 1.3333 v 6.66667 h 1.3333 v 6.66666 h 1.3334 v 6.66667 h 1.3333 v 6.66667 h 1.3333 v 5.33333 h 1.3334 v 6.66667 h 1.3333 v 6.66666 h 1.3333 v 6.66667 h 1.3334 v 5.33333 h 1.3333 v 6.66667 h 1.3333 v 6.66667 h 1.3334 v 6.66666 h 1.3333 v 6.66667 h 1.3333 v 5.33333 h 1.3334 v 6.66667 h 1.3333 v 6.66667 h 1.3333 v 6.66666 h 1.3334 v 5.33334 h 1.3333 v 6.66666 h 1.3333 v 6.66667 h 1.3334 v 6.66667 h 1.3333 v 6.66666 h 1.3333 v 5.33334 h 1.3334 v 6.66666 h 1.3333 v 6.66667 h 1.3333 v 6.66667 h 1.3334 v 6.66666 h 1.3333 v 5.33334 h 1.3333 v 6.66666 h 1.3334 v 6.66667 h 1.3333 v 6.66667 h 1.3333 v 5.33333 h 1.3334 v 6.66667 h 1.3333 v 6.66666 h 1.3333 v 6.66667 h 1.3334 v 6.66667 h 1.3333 v 5.33333 h 1.3333 v 6.66667 h 1.3334 v 6.66666 h 1.3333 v 6.66667 h 1.3333 v 5.33333 h 1.3334 v 6.66667 h 1.3333 v 6.66667 h 1.3333 v 6.66666 h 1.3334 v 6.66667 h 1.3333 v 5.33333 h 1.3333 v 2.66667 h -2.6666 v 1.33333 h -2.6667 v 1.33334 h -1.3333 v 1.33333 h -1.3334 v 5.33333 h 1.3334 v 1.33334 h 1.3333 v 1.33333 h 10.6667 v -1.33333 h 6.6666 v -1.33334 h 5.3334 v -1.33333 h 6.6666 v -1.33333 h 6.6667 v -1.33334 h 6.6667 v -1.33333 h 6.6666 v -1.33333 h 5.3334 v -1.33334 h 6.6666 v -1.33333 h 6.6667 v -1.33333 h 4 v -1.33334 h 2.6667 v -2.66666 h 1.3333 v -2.66667 h -1.3333 v -2.66667 h -1.3334 v -1.33333 h -1.3333 v -1.33333 h -5.3333 v 1.33333 h -1.3334 v -2.66667 h -1.3333 v -6.66666 h -1.3333 v -6.66667 h -1.3334 v -5.33333 h -1.3333 v -6.66667 h -1.3333 v -6.66667 h -1.3334 v -6.66666 h -1.3333 v -5.33334 h -1.3333 v -6.66666 h -1.3334 v -6.66667 h -1.3333 v -6.66667 h -1.3333 v -6.66666 h -1.3334 v -5.33334 h -1.3333 v -6.66666 h -1.3333 v -6.66667 h -1.3334 v -6.66667 h -1.3333 v -6.66666 h -1.3333 v -5.33334 h -1.3334 v -6.66666 h -1.3333 v -6.66667 h -1.3333 v -6.66667 h -1.3334 v -5.33333 h -1.3333 v -6.66667 h -1.3333 v -6.66666 h -1.3334 v -6.66667 h -1.3333 v -6.66667 h -1.3333 v -5.33333 h -1.3334 v -6.66667 h -1.3333 v -6.66666 h -1.3333 v -6.66667 h -1.3334 v -5.33333 h -1.3333 v -6.66667 h -1.3333 v -6.66667 h -1.3334 v -6.66666 h -1.3333 v -6.66667 h -1.3333 v -5.33333 h -1.3334 v -6.66667 h -1.3333 v -6.66667 h -1.3333 v -6.66666 h -1.3334 v -6.66667 h -1.3333 v -5.33333 h -1.3333 v -6.66667 h -1.3334 v -6.66667 h -1.3333 v -6.66666 h -1.3333 v -5.33334 h -1.3334 v -6.66666 h -1.3333 v -6.66667 h -1.3333 v -6.66667 h -1.3334 v -6.66666 h -1.3333 v -5.33334 h -1.3333 v -6.66666 h -1.3334 v -6.66667 h -1.3333 v -6.66667 h -1.3333 v -5.33333 h -1.3334 v -6.66667 h -1.3333 v -6.66666 h -1.3333 v -6.66667 h -1.3334 v -8 h 4 v -1.33333 h 1.3334 v -1.33334 h 1.3333 v -6.66666 h -1.3333 v -1.33334 h -2.6667 v -1.33333 h -4 m 525.3333,74.66667 v 1.33333 h -8 v 1.33333 h -6.6667 v 1.33334 h -4 v 1.33333 h -4 v 1.33333 h -2.6666 v 1.33334 h -2.6667 v 1.33333 h -2.6667 v 1.33333 h -2.6666 v 1.33334 h -1.3334 v 1.33333 h -2.6666 v 1.33333 h -1.3334 v 1.33334 h -2.6666 v 1.33333 h -1.3334 v 1.33333 h -1.3333 v 1.33334 h -1.3333 v 1.33333 h -1.3334 v 2.66667 h -1.3333 v 2.66666 h -1.3333 v 2.66667 h 1.3333 v 2.66667 h 1.3333 v 2.66666 h 1.3334 v 2.66667 h 1.3333 v 2.66667 h 1.3333 v 1.33333 h 1.3334 v 1.33333 h 1.3333 v 1.33334 h 1.3333 v 2.66666 h 1.3334 v 1.33334 h 1.3333 v 1.33333 h 1.3333 v 1.33333 h 2.6667 v 1.33334 h 1.3333 v 1.33333 h 1.3334 v 1.33333 h 1.3333 v 1.33334 h 2.6667 v 1.33333 h 1.3333 v 1.33333 h 2.6667 v 1.33334 h 2.6666 v 1.33333 h 2.6667 v 1.33333 h 2.6667 v 1.33334 h 2.6666 v 1.33333 h 2.6667 v 1.33333 h 2.6667 v -1.33333 h -1.3334 v -2.66667 h -1.3333 v -2.66666 h -1.3333 v -1.33334 h -1.3334 v -2.66666 h -1.3333 v -1.33334 h -1.3333 v -2.66666 h -1.3334 v -1.33334 h -1.3333 v -1.33333 h -1.3333 v -2.66667 h -1.3334 v -1.33333 h -1.3333 v -1.33333 h -1.3333 v -1.33334 h -1.3334 v -1.33333 h -1.3333 v -1.33333 h -1.3333 v -1.33334 h -2.6667 v -1.33333 h 5.3333 v 1.33333 h 25.3334 v -1.33333 h 6.6666 v -1.33333 h -1.3333 v -1.33334 h -2.6667 v -1.33333 h -2.6666 v -1.33333 h -2.6667 v -1.33334 h -2.6667 v -1.33333 h -4 v -1.33333 h -4 v -1.33334 h -4 v -1.33333 h -6.6666 v -1.33333 h -8 v -1.33334 h 4 v -1.33333 h 2.6666 v -1.33333 h 2.6667 v -1.33334 h 2.6667 v -1.33333 h 2.6666 v -1.33333 h 1.3334 v -1.33334 h 2.6666 v -1.33333 h 1.3334 v -1.33333 h 1.3333 v -1.33334 h 2.6667 v -1.33333 h 1.3333 v -1.33333 h 1.3333 v -1.33334 h 1.3334 v -1.33333 h 1.3333 v -1.33333 h 1.3333 v -1.33334 h 1.3334 v -1.33333 h 1.3333 v -1.33333 h -4 m -142.6667,98.66666 v 1.33334 h -1.3333 v 2.66666 h -1.3333 v 1.33334 h 1.3333 v 2.66666 h 1.3333 v 1.33334 h 4 v 4 h -1.3333 v 6.66666 h -1.3333 v 6.66667 h -1.3334 v 6.66667 h -1.3333 v 5.33333 h -1.3333 v 6.66667 h -1.3334 v 6.66666 h -1.3333 v 6.66667 h -1.3333 v 6.66667 h -1.3334 v 5.33333 h -1.3333 v 6.66667 h -1.3333 v 6.66666 h -1.3334 v 6.66667 h -1.3333 v 6.66667 h -1.3333 v 5.33333 h -1.3334 v 6.66667 h -1.3333 v 6.66666 h -1.3333 v 6.66667 h -1.3334 v 5.33333 h -1.3333 v 6.66667 h -1.3333 v 6.66667 h -1.3334 v 6.66666 h -1.3333 v 6.66667 h -1.3333 v 5.33333 h -1.3334 v 6.66667 h -1.3333 v 6.66667 h -1.3333 v 6.66666 h -1.3334 v 5.33334 h -1.3333 v 6.66666 h -1.3333 v 6.66667 h -1.3334 v 6.66667 h -1.3333 v 6.66666 h -1.3333 v 5.33334 h -1.3334 v 6.66666 h -1.3333 v 6.66667 h -1.3333 v 6.66667 h -1.3334 v 5.33333 h -1.3333 v 6.66667 h -1.3333 v 6.66666 h -1.3334 v 6.66667 h -1.3333 v 6.66667 h -1.3333 v 5.33333 h -1.3334 v 6.66667 h -1.3333 v 6.66666 h -1.3333 v 6.66667 h -1.3334 v 2.66667 h -5.3333 v 1.33333 h -1.3333 v 1.33333 h -1.3334 v 5.33334 h 1.3334 v 1.33333 h 5.3333 v 1.33333 h 6.6667 v 1.33334 h 5.3333 v 1.33333 h 6.6667 v 1.33333 h 6.6666 v 1.33334 h 6.6667 v 1.33333 h 5.3333 v 1.33333 h 6.6667 v 1.33334 h 9.3333 v -2.66667 h 1.3334 v -4 h -1.3334 v -1.33333 h -1.3333 v -1.33334 h -4 v -1.33333 h 1.3333 v -6.66667 h 1.3334 v -6.66666 h 1.3333 v -6.66667 h 1.3333 v -6.66667 h 1.3334 v -5.33333 h 1.3333 v -6.66667 h 1.3333 v -6.66666 h 1.3334 v -6.66667 h 1.3333 v -6.66667 h 1.3333 v -5.33333 h 1.3334 v -6.66667 h 1.3333 v -6.66666 h 1.3333 v -6.66667 h 1.3334 v -5.33333 h 1.3333 v -6.66667 h 1.3333 v -6.66667 h 1.3334 v -6.66666 h 1.3333 v -6.66667 h 1.3333 v -5.33333 h 1.3334 v -6.66667 h 1.3333 v -6.66667 h 1.3333 v -6.66666 h 1.3334 v -5.33334 h 1.3333 v -6.66666 h 1.3333 v -6.66667 h 1.3334 v -6.66667 h 1.3333 v -6.66666 h 1.3333 v -5.33334 h 1.3334 v -6.66666 h 1.3333 v -6.66667 h 1.3333 v -6.66667 h 1.3334 v -5.33333 h 1.3333 v -6.66667 h 1.3333 v -6.66666 h 1.3334 v -6.66667 h 1.3333 v -6.66667 h 1.3333 v -5.33333 h 1.3334 v -6.66667 h 1.3333 v -6.66666 h 1.3333 v -6.66667 h 1.3334 v -6.66667 h 1.3333 v -5.33333 h 1.3333 v -6.66667 h 1.3334 v -6.66666 h 1.3333 v -5.33334 h 6.6667 v -1.33333 h 1.3333 v -6.66667 h -2.6667 v -1.33333 h -4 v -1.33333 h -6.6666 v -1.33334 h -5.3334 v -1.33333 h -6.6666 v -1.33333 h -6.6667 v -1.33334 h -6.6667 v -1.33333 h -6.6666 v -1.33333 h -5.3334 v -1.33334 h -8 m -265.3333,20 v 1.33334 h -1.3333 v 2.66666 h -1.3333 v 1.33334 h -1.3334 v 2.66666 h -1.3333 v 1.33334 h -1.3333 v 1.33333 h -1.3334 v 2.66667 h -1.3333 v 2.66666 h -1.3333 v 1.33334 h -1.3334 v 2.66666 h -1.3333 v 2.66667 h -1.3333 v 1.33333 h -1.3334 v 2.66667 h -1.3333 v 2.66667 h -1.3333 v 2.66666 h -1.3334 v 2.66667 h -1.3333 v 4 h -1.3333 v 2.66667 h -1.3334 v 4 h -1.3333 v 5.33333 h -1.3333 v 4 h -1.3334 v 8 h -1.3333 v 26.66667 h 1.3333 v 2.66666 h 1.3334 v 1.33334 h 1.3333 v 1.33333 h 2.6667 v 1.33333 h 4 v 1.33334 h 4 v 1.33333 h 5.3333 v 1.33333 h 10.6667 v 1.33334 h 14.6666 v -1.33334 h 12 v -1.33333 h 6.6667 v -1.33333 h 5.3333 v -1.33334 h 5.3334 v -1.33333 h 4 v -1.33333 h 4 v -1.33334 h 2.6666 v -1.33333 h 4 v -1.33333 h 2.6667 v -1.33334 h 4 v -1.33333 h 2.6667 v -1.33333 h -1.3334 v -1.33334 h -5.3333 v -1.33333 h -5.3333 v -1.33333 h -6.6667 v -1.33334 h -9.3333 v -1.33333 h -30.6667 v 1.33333 h -5.3333 v -1.33333 h 1.3333 v -1.33333 h 2.6667 v -1.33334 h 1.3333 v -1.33333 h 1.3333 v -1.33333 h 1.3334 v -1.33334 h 2.6666 v -1.33333 h 1.3334 v -1.33333 h 1.3333 v -1.33334 h 1.3333 v -1.33333 h 1.3334 v -1.33333 h 1.3333 v -1.33334 h 1.3333 v -1.33333 h 1.3334 v -1.33333 h 1.3333 v -1.33334 h 1.3333 v -1.33333 h 1.3334 v -2.66667 h 1.3333 v -1.33333 h 1.3333 v -1.33333 h 1.3334 v -1.33334 h 1.3333 v -2.66666 h 1.3333 v -1.33334 h 1.3334 v -2.66666 h 1.3333 v -1.33334 h 1.3333 v -2.66666 h 1.3334 v -1.33334 h 1.3333 v -2.66666 h 1.3333 v -1.33334 h 1.3334 v -2.66666 h 1.3333 v -2.66667 h 1.3333 v -1.33333 h -1.3333 v 1.33333 h -4 v 1.33333 h -2.6667 v 1.33334 h -4 v 1.33333 h -2.6666 v 1.33333 h -2.6667 v 1.33334 h -2.6667 v 1.33333 h -2.6666 v 1.33333 h -2.6667 v 1.33334 h -2.6667 v 1.33333 h -2.6666 v 1.33333 h -1.3334 v 1.33334 h -2.6666 v 1.33333 h -2.6667 v 1.33333 h -1.3333 v 1.33334 h -2.6667 v 1.33333 h -1.3333 v 1.33333 h -1.3334 v 1.33334 h -2.6666 v 1.33333 h -1.3334 v 1.33333 h -1.3333 v 1.33334 h -1.3333 v 1.33333 h -1.3334 v 1.33333 h -1.3333 v 1.33334 h -1.3333 v -2.66667 h 1.3333 v -4 h 1.3333 v -4 h 1.3334 v -5.33333 h 1.3333 v -5.33334 h 1.3333 v -8 h 1.3334 v -18.66666 h 1.3333 v -8 h -1.3333 v -5.33334 h -1.3334 m 157.3333,129.33334 v 1.33333 h 1.3334 v 2.66667 h 1.3333 v 4 h 1.3333 v 1.33333 h 1.3334 v 2.66667 h 1.3333 v 2.66666 h 1.3333 v 1.33334 h 1.3334 v 2.66666 h 1.3333 v 1.33334 h 1.3333 v 2.66666 h 1.3334 v 1.33334 h 1.3333 v 1.33333 h 1.3333 v 2.66667 h 1.3334 v 1.33333 h 1.3333 v 1.33333 h 1.3333 v 1.33334 h 1.3334 v 1.33333 h 1.3333 v 1.33333 h 1.3333 v 1.33334 h 1.3334 v 1.33333 h 1.3333 v 1.33333 h -5.3333 v -1.33333 h -8 v -1.33333 h -30.6667 v 1.33333 h -4 v 1.33333 h 2.6667 v 1.33334 h 1.3333 v 1.33333 h 2.6667 v 1.33333 h 2.6667 v 1.33334 h 2.6666 v 1.33333 h 2.6667 v 1.33333 h 2.6667 v 1.33334 h 2.6666 v 1.33333 h 2.6667 v 1.33333 h 4 v 1.33334 h 4 v 1.33333 h 5.3333 v 1.33333 h 5.3333 v 1.33334 h 5.3334 v 1.33333 h -4 v 1.33333 h -2.6667 v 1.33334 h -4 v 1.33333 h -2.6667 v 1.33333 h -2.6666 v 1.33334 h -1.3334 v 1.33333 h -2.6666 v 1.33333 h -2.6667 v 1.33334 h -1.3333 v 1.33333 h -2.6667 v 1.33333 h -1.3333 v 1.33334 h -1.3333 v 1.33333 h -2.6667 v 1.33333 h -1.3333 v 1.33334 h -1.3334 v 1.33333 h -1.3333 v 1.33333 h -2.6667 v 1.33334 h -1.3333 v 1.33333 h -1.3333 v 1.33333 h -1.3334 v 1.33334 h 8 v -1.33334 h 10.6667 v -1.33333 h 6.6666 v -1.33333 h 5.3334 v -1.33334 h 4 v -1.33333 h 4 v -1.33333 h 2.6666 v -1.33334 h 4 v -1.33333 h 2.6667 v -1.33333 h 2.6667 v -1.33334 h 1.3333 v -1.33333 h 2.6667 v -1.33333 h 1.3333 v -1.33334 h 2.6667 v -1.33333 h 1.3333 v -1.33333 h 1.3333 v -1.33334 h 1.3334 v -1.33333 h 1.3333 v -1.33333 h 1.3333 v -1.33334 h 1.3334 v -1.33333 h 1.3333 v -1.33333 h 1.3333 v -1.33334 h 1.3334 v -1.33333 h -1.3334 v -1.33333 h 1.3334 v -2.66667 h -1.3334 v -4 h -1.3333 v -2.66667 h -1.3333 v -2.66666 h -1.3334 v -2.66667 h -1.3333 v -1.33333 h -1.3333 v -2.66667 h -1.3334 v -1.33333 h -1.3333 v -2.66667 h -1.3333 v -1.33333 h -1.3334 v -1.33334 h -1.3333 v -1.33333 h -1.3333 v -1.33333 h -1.3334 v -1.33334 h -1.3333 v -1.33333 h -1.3333 v -1.33333 h -1.3334 v -1.33334 h -1.3333 v -1.33333 h -1.3333 v -1.33333 h -2.6667 v -1.33334 h -1.3333 v -1.33333 h -1.3334 v -1.33333 h -1.3333 v -1.33334 h -2.6667 v -1.33333 h -2.6666 v -1.33333 h -1.3334 v -1.33334 h -2.6666 v -1.33333 h -2.6667 v -1.33333 h -1.3333 v -1.33334 h -2.6667 v -1.33333 h -2.6667 v -1.33333 h -4 m 28,38.66666 v 1.33334 h -1.3333 v -1.33334 h 1.3333 m -226.6666,46.66667 v 1.33333 h -12 v 1.33334 h -10.6667 v 1.33333 h -12 v 1.33333 h -10.6666 v 1.33334 h -9.3334 v 1.33333 h -4 v 1.33333 h -1.3333 v 8 h 1.3333 v 1.33334 h 2.6667 v 1.33333 h 5.3333 v 4 h 1.3334 v 12 h 1.3333 v 10.66667 h 1.3333 v 12 h 1.3334 v 10.66666 h 1.3333 v 12 h 1.3333 v 10.66667 h 1.3334 v 10.66667 h 1.3333 v 12 h 1.3333 v 10.66666 h 1.3334 v 12 h 1.3333 v 10.66667 h 1.3333 v 12 h 1.3334 v 10.66667 h 1.3333 v 10.66666 h 1.3333 v 12.00001 h 1.3334 v 10.6667 h 1.3333 v 12 h 1.3333 v 10.6667 h 1.3334 v 12 h 1.3333 v 10.6666 h 1.3333 v 10.6667 h 1.3334 v 12 h 1.3333 v 10.6667 h 1.3333 v 12 h 1.3334 v 10.6666 h 1.3333 v 12 h 1.3333 v 10.6667 h 1.3334 v 10.6667 h 1.3333 v 12 h 1.3333 v 10.6666 h 1.3334 v 12 h 1.3333 v 10.6667 h 1.3333 v 8 h -5.3333 v 1.3333 h -1.3333 v 1.3334 h -1.3334 v 6.6666 h 1.3334 v 1.3334 h 2.6666 v 1.3333 h 5.3334 v -1.3333 h 10.6666 v -1.3334 h 12 v -1.3333 h 10.6667 v -1.3333 h 12 v -1.3334 h 10.6667 v -1.3333 h 9.3333 v -1.3333 h 2.6667 v -1.3334 h 1.3333 v -6.6666 h -1.3333 v -1.3334 h -1.3334 v -1.3333 h -6.6666 v -2.6667 h -1.3334 v -12 h -1.3333 v -10.6666 h -1.3333 v -12 h -1.3334 v -10.6667 h -1.3333 v -10.6667 h -1.3333 v -12 h -1.3334 v -10.6666 h -1.3333 v -12 h -1.3333 v -10.6667 h -1.3334 v -12 h -1.3333 v -10.6667 h -1.3333 v -10.6666 h -1.3334 v -12 h -1.3333 v -10.6667 h -1.3333 v -12 h -1.3334 v -10.6667 h -1.3333 v -12 h -1.3333 v -10.66667 h -1.3334 v -10.66667 h -1.3333 v -12 h -1.3333 v -10.66667 h -1.3334 v -12 h -1.3333 v -10.66666 h -1.3333 v -12 h -1.3334 v -10.66667 h -1.3333 v -10.66667 h -1.3333 v -12 h -1.3334 v -10.66666 h -1.3333 v -12 h -1.3333 v -10.66667 h -1.3334 v -12 h -1.3333 v -10.66667 h -1.3333 v -9.33333 h 4 v -1.33333 h 2.6666 v -1.33334 h 1.3334 v -8 h -1.3334 v -1.33333 h -17.3333 m 238.6666,85.33333 v 1.33334 h -1.3333 v 6.66666 h 1.3333 v 1.33334 h 4 v 12 h -1.3333 v 12 h -1.3333 v 10.66666 h -1.3334 v 12 h -1.3333 v 10.66667 h -1.3333 v 12 h -1.3334 v 10.66667 h -1.3333 v 10.66667 h -1.3333 v 12 h -1.3334 v 10.6667 h -1.3333 v 12 h -1.3333 v 10.6667 h -1.3334 v 12 h -1.3333 v 10.6666 h -1.3333 v 10.6667 h -1.3334 v 12 h -1.3333 v 10.6667 h -1.3333 v 12 h -1.3334 v 10.6666 h -1.3333 v 12 h -1.3333 v 10.6667 h -1.3334 v 12 h -1.3333 v 10.6667 h -1.3333 v 10.6666 h -1.3334 v 12 h -1.3333 v 9.3334 h -5.3333 v 1.3333 h -1.3334 v 1.3333 h -1.3333 v 5.3334 h 1.3333 v 1.3333 h 5.3334 v 1.3333 h 10.6666 v 1.3334 h 12 v 1.3333 h 10.6667 v 1.3333 h 10.6667 v 1.3334 h 9.3333 v -1.3334 h 1.3333 v -6.6666 h -1.3333 v -1.3334 h -4 v -13.3333 h 1.3333 v -10.6667 h 1.3334 v -10.6666 h 1.3333 v -12 h 1.3333 v -10.6667 h 1.3334 v -12 h 1.3333 v -10.6667 h 1.3333 v -12 h 1.3334 v -10.6666 h 1.3333 v -12 h 1.3333 v -10.6667 h 1.3334 v -10.6667 h 1.3333 v -12 h 1.3333 v -10.6666 h 1.3334 v -12 h 1.3333 v -10.6667 h 1.3333 v -12 h 1.3334 v -10.6667 h 1.3333 v -10.66667 h 1.3333 v -12 h 1.3334 v -10.66667 h 1.3333 v -12 h 1.3333 v -10.66667 h 1.3334 v -12 h 1.3333 v -10.66666 h 1.3333 v -9.33334 h 5.3334 v -1.33333 h 1.3333 v -1.33333 h 1.3333 v -5.33334 h -1.3333 v -1.33333 h -4 v -1.33333 h -9.3333 v -1.33334 h -10.6667 v -1.33333 h -12 v -1.33333 h -10.6667 v -1.33334 h -12 m -387.99993,77.33334 v 1.33333 h 1.33333 v 1.33333 h 1.33333 v 2.66667 h 1.33334 v 1.33333 h 1.33333 v 2.66667 h 1.33333 v 1.33333 h 1.33334 v 2.66667 h 1.33333 v 1.33333 h 1.33333 v 1.33334 h 1.33334 v 1.33333 h 1.33333 v 2.66667 h 1.3333 v 1.33337 h 1.3334 v 1.3333 h 1.3333 v 1.3333 h 1.3333 v 2.6667 h 1.3334 v 1.3334 h 1.3333 v 1.3333 h 1.3333 v 1.3333 h 1.3334 v 1.3334 h 1.3333 v 1.3333 h 1.3333 v 1.3333 h 1.3334 v 1.3334 h 1.3333 v 1.3333 h 1.3333 v 1.3333 h 1.3334 v 1.3334 h 1.3333 v 1.3333 h 1.3333 v 1.3333 h 1.3334 v 1.3334 h 1.3333 v 1.3333 h 1.3333 v 1.3333 h 1.3334 v 1.3334 h 2.6666 v 1.3333 h 1.3334 v 1.3333 h 1.3333 v 1.3334 h 1.3333 v 1.3333 h 2.6667 v 1.3333 h 1.3333 v 1.3334 h 1.3334 v 1.3333 h 2.6666 v 1.3333 h 1.3334 v 1.3334 h 2.6666 v 1.3333 h 2.6667 v 1.3333 h 1.3333 v 1.3334 h -5.3333 v -1.3334 h -20 v 1.3334 h -13.3333 v 1.3333 h -9.3334 v 1.3333 h -6.66663 v 1.3334 h -5.33334 v 1.3333 h -5.33333 v 1.3333 h -5.33333 v 1.3334 h -4 v 1.3333 h -4 v 1.3333 h -4 v 1.3334 h -4.000005 v 1.3333 h -2.66666 v 1.3333 h 4 v 1.3334 h 2.666665 v 1.3333 h 4 v 1.3333 h 4 v 1.3334 h 5.33333 v 1.3333 h 4 v 1.3333 h 4 v 1.3334 h 5.33333 v 1.3333 h 6.66667 v 1.3333 h 6.6667 v 1.3334 h 9.3333 v 1.3333 h 29.3333 v 1.3333 h -2.6666 v 1.3334 h -1.3334 v 1.3333 h -2.6666 v 1.3333 h -2.6667 v 1.3334 h -1.3333 v 1.3333 h -2.6667 v 1.3333 h -1.3333 v 1.3334 h -2.6667 v 1.3333 h -1.3333 v 1.3333 h -1.3334 v 1.3334 h -2.6666 v 1.3333 h -1.3334 v 1.3333 h -1.3333 v 1.3334 h -1.3333 v 1.3333 h -2.6667 v 1.3333 h -1.3333 v 1.3334 h -1.3334 v 1.3333 h -1.3333 v 1.3333 h -1.3333 v 1.3334 h -1.3334 v 1.3333 h -1.3333 v 1.3333 h -1.3333 v 1.3334 h -1.3334 v 1.3333 h -1.3333 v 1.3333 h -1.3333 v 1.3334 h -1.3334 v 1.3333 h -1.3333 v 1.3333 h -1.33333 v 1.3334 h -1.33334 v 1.3333 h -1.33333 v 1.3333 h -1.33333 v 1.3334 h -1.33334 v 1.3333 h -1.33333 v 1.3333 h -1.33333 v 2.6667 h -1.33334 v 1.3333 h -1.33333 v 1.3334 h -1.33333 v 1.3333 h -1.33334 v 2.6667 h -1.33333 v 1.3333 h -1.33333 v 1.3333 h -1.33334 v 1.3334 h 4 v -1.3334 h 5.33334 v -1.3333 h 5.33333 v -1.3333 h 5.3333 v -1.3334 h 5.3334 v -1.3333 h 4 v -1.3333 h 4 v -1.3334 h 4 v -1.3333 h 2.6666 v -1.3333 h 4 v -1.3334 h 2.6667 v -1.3333 h 4 v -1.3333 h 2.6667 v -1.3334 h 2.6666 v -1.3333 h 2.6667 v -1.3333 h 2.6667 v -1.3334 h 2.6666 v -1.3333 h 2.6667 v -1.3333 h 1.3333 v -1.3334 h 2.6667 v -1.3333 h 2.6667 v -1.3333 h 1.3333 v -1.3334 h 2.6667 v -1.3333 h 1.3333 v -1.3333 h 1.3333 v -1.3334 h 2.6667 v -1.3333 h 1.3333 v -1.3333 h 1.3334 v -1.3334 h 2.6666 v -1.3333 h 1.3334 v -1.3333 h 1.3333 v -1.3334 h 1.3333 v -1.3333 h 1.3334 v -1.3333 h 1.3333 v -1.3334 h 1.3333 v -1.3333 h 1.3334 v -1.3333 h 1.3333 v -1.3334 h 1.3333 v -1.3333 h 1.3334 v -1.3333 h 1.3333 v -1.3334 h 1.3333 v -1.3333 h 1.3334 v -2.6667 h 1.3333 v -1.3333 h 1.3333 v -1.3333 h 1.3334 v -2.6667 h 1.3333 v -1.3333 h 1.3333 v -2.6667 h 1.3334 v -1.3333 h 1.3333 v -2.6667 h 1.3333 v -2.6667 h -1.3333 v -4 h -1.3333 v -2.6666 h -1.3334 v -2.6667 h -1.3333 v -1.3333 h -1.3333 v -2.6667 h -1.3334 v -1.3333 h -1.3333 v -2.6667 h -1.3333 v -1.3333 h -1.3334 v -1.3334 h -1.3333 v -2.6666 h -1.3333 v -1.3334 h -1.3334 v -1.3333 h -1.3333 v -1.3333 h -1.3333 v -1.3334 h -1.3334 v -2.6666 h -1.3333 v -1.3334 h -1.3333 v -1.3333 h -1.3334 v -1.3333 h -2.6666 v -1.3334 h -1.3334 v -1.3333 h -1.3333 v -1.3333 h -1.3333 v -1.3334 h -1.3334 v -1.3333 h -1.3333 v -1.3333 h -1.3333 v -1.3334 h -2.6667 v -1.3333 h -1.3333 v -1.3333 h -1.3334 v -1.3334 h -2.6666 v -1.3333 h -1.3334 v -1.3333 h -2.6666 v -1.3334 h -1.3334 v -1.3333 h -2.6666 v -1.3334 h -1.3334 v -1.3333 h -2.6666 v -1.3333 h -2.6667 v -1.33337 h -2.6667 v -1.33334 h -2.6666 v -1.33333 h -1.3334 v -1.33333 h -2.6666 v -1.33334 h -4 v -1.33333 h -2.6667 v -1.33333 h -2.6667 v -1.33334 h -2.6666 v -1.33333 h -4 v -1.33333 h -2.6667 v -1.33334 h -4 v -1.33333 h -4 v -1.33333 h -4 v -1.33334 h -4 v -1.33333 h -5.33333 v -1.33333 h -4 m 457.33333,130.66667 v 1.3334 h -5.3334 v 1.3333 h -4 v 1.3333 h -4 v 1.3334 h -2.6666 v 1.3333 h -1.3334 v 18.6667 h 1.3334 v 6.6666 h 1.3333 v 4 h 1.3333 v 4 h 1.3334 v 2.6667 h 1.3333 v 2.6667 h 1.3333 v 2.6666 h 1.3334 v 2.6667 h 1.3333 v 2.6667 h 1.3333 v 2.6666 h 1.3334 v 1.3334 h 1.3333 v 2.6666 h 1.3333 v 1.3334 h 1.3334 v 1.3333 h 1.3333 v 2.6667 h 1.3333 v 1.3333 h 1.3334 v 1.3333 h 1.3333 v 1.3334 h 1.3333 v 1.3333 h 1.3334 v -9.3333 h -1.3334 v -12 h -1.3333 v -5.3334 h -1.3333 v -5.3333 h -1.3334 v -4 h -1.3333 v -4 h 1.3333 v 1.3333 h 2.6667 v 1.3334 h 1.3333 v 1.3333 h 2.6667 v 1.3333 h 1.3333 v 1.3334 h 2.6667 v 1.3333 h 2.6667 v 1.3333 h 2.6666 v 1.3334 h 2.6667 v 1.3333 h 2.6667 v 1.3333 h 4 v 1.3334 h 2.6666 v 1.3333 h 4 v 1.3333 h 4 v -1.3333 h -1.3333 v -1.3333 h -1.3333 v -2.6667 h -1.3334 v -1.3333 h -1.3333 v -1.3334 h -1.3333 v -2.6666 h -1.3334 v -1.3334 h -1.3333 v -1.3333 h -1.3333 v -1.3333 h -1.3334 v -2.6667 h -1.3333 v -1.3333 h -1.3333 v -1.3334 h -1.3334 v -1.3333 h -1.3333 v -1.3333 h -1.3333 v -1.3334 h -1.3334 v -1.3333 h -2.6666 v -1.3333 h -1.3334 v -1.3334 h -1.3333 v -1.3333 h -1.3333 v -1.3333 h -2.6667 v -1.3334 h -1.3333 v -1.3333 h 24 v -1.3333 h 6.6666 v -1.3334 h 5.3334 v -1.3333 h 5.3333 v -1.3333 h 2.6667 v -1.3334 h -2.6667 v -1.3333 h -2.6667 v -1.3333 h -4 v -1.3334 h -5.3333 v -1.3333 h -5.3333 v -1.3333 h -6.6667 v -1.3334 h -25.3333 m 1.3333,29.3334 v 1.3333 h -1.3333 v -1.3333 z"
       id="path238" />
    <path
       style="fill:#ffffff;stroke-width:2.19068"
       d="m 119.39205,403.19395 c 0,-1.74744 1.64545,-4.098 3.65654,-5.22346 3.30234,-1.8481 3.39217,-3.71546 0.92728,-19.2773 -1.50109,-9.47706 -4.04386,-25.61036 -5.6506,-35.85179 -3.51442,-22.40106 -8.80113,-55.00532 -12.0773,-74.48312 -1.31729,-7.83168 -3.87442,-23.60457 -5.68252,-35.05087 C 92.881229,184.66194 90.529966,169.86418 87.686345,152.25225 86.032765,142.01082 83.015412,123.28051 80.981118,110.62933 78.946824,97.978157 76.492243,83.191068 75.526494,77.769135 74.560745,72.347202 72.222238,58.053016 70.329812,46.004277 68.437386,33.955538 66.302806,22.025262 65.5863,19.492554 64.411117,15.338511 65.426384,14.744928 75.955379,13.430202 82.374877,12.628618 95.660667,10.693311 105.47936,9.1295199 l 17.85216,-2.8432558 1.41184,7.8102669 c 0.77651,4.295647 2.80156,16.682521 4.50011,27.526386 1.69855,10.843866 4.169,26.123858 5.48989,33.955538 2.97203,17.621417 7.73377,47.073625 12.04219,74.483115 1.79921,11.4463 4.71595,29.68371 6.48163,40.52758 1.76568,10.84386 4.67822,29.08127 6.47231,40.52758 1.79408,11.4463 4.34416,26.72629 5.66684,33.95553 1.32268,7.22925 3.82341,22.26445 5.55718,33.4116 1.73376,11.14712 4.58774,29.38453 6.34216,40.52757 1.75442,11.14303 3.80187,24.20329 4.54989,29.02279 2.51363,16.19541 3.33765,18.62078 6.32641,18.62078 1.63682,0 4.09471,1.3479 5.46197,2.99536 3.83987,4.62676 -0.90633,7.05081 -19.47489,9.94647 -9.03656,1.4092 -21.35913,3.45113 -27.3835,4.53764 -17.19679,3.10148 -27.3835,2.75159 -27.3835,-0.94052 z"
       id="path383" />
    <path
       style="fill:#ffffff;stroke-width:2.19068"
       d="M 4.7796264,354.55818 C 2.0710455,351.8496 30.747267,340.65072 40.39153,340.65072 c 2.484575,0 4.517407,-0.98581 4.517407,-2.19068 0,-1.20488 -1.059636,-2.19068 -2.354748,-2.19068 -2.994128,0 -32.6961296,-19.13952 -32.6961296,-21.06889 0,-2.69298 23.6733846,1.32668 34.0768776,5.78614 5.69626,2.4417 10.675592,4.1207 11.065183,3.73111 0.389593,-0.38959 -2.526754,-6.08275 -6.480772,-12.65146 -6.338561,-10.53011 -13.368571,-30.29868 -11.455124,-32.21213 0.381851,-0.38185 5.682944,4.76412 11.780208,11.4355 11.146002,12.1955 20.599232,29.2219 23.321717,42.0052 1.256752,5.90101 0.588669,7.49257 -4.680556,11.15045 -10.104397,7.01443 -27.782684,11.5402 -45.077635,11.5402 -8.910567,0 -16.8433166,-0.64229 -17.6283316,-1.4273 z"
       id="path385" />
    <path
       style="fill:#ffffff;stroke-width:2.19068"
       d="m 207.01925,809.40387 c -2.81651,-1.86045 -2.60722,-2.71605 1.4648,-5.98815 5.07338,-4.07675 4.89715,-6.2873 -3.44782,-43.24981 -2.46406,-10.91412 -15.0998,-71.75484 -18.88136,-90.91321 -2.63725,-13.361 -6.07271,-29.80615 -13.27162,-63.52972 -8.40755,-39.38548 -14.35495,-68.00686 -16.3877,-78.86447 -1.24067,-6.62681 -3.75694,-18.94938 -5.59171,-27.3835 -15.18193,-69.78853 -14.3559,-66.81574 -18.56564,-66.81574 -4.97681,0 -7.58247,-4.04927 -4.55426,-7.07747 1.27289,-1.2729 9.02416,-3.65659 17.22502,-5.29708 8.20087,-1.6405 23.5621,-4.77295 34.13607,-6.961 16.60957,-3.43698 19.57898,-3.55223 21.82411,-0.84702 2.05978,2.48189 1.75963,3.7448 -1.44739,6.08982 -4.49621,3.28772 -4.20225,8.76681 1.99022,37.09489 1.84368,8.43412 4.83204,22.7283 6.6408,31.76486 1.80877,9.03655 4.76836,23.33074 6.57687,31.76486 1.80852,8.43411 4.69711,22.2354 6.41909,30.66952 1.72198,8.43411 5.67676,27.16443 8.7884,41.62291 3.11164,14.45849 7.12369,33.68171 8.91567,42.71826 1.79198,9.03655 4.73784,23.33074 6.54636,31.76486 1.80852,8.43412 4.69711,22.2354 6.41909,30.66952 1.72198,8.43411 5.6784,27.16443 8.79204,41.62291 3.11364,14.45849 6.73216,31.97484 8.04115,38.92521 1.31921,7.00461 3.49297,12.50324 4.8771,12.33686 5.51382,-0.66286 7.97382,0.37048 7.97382,3.34948 0,3.31285 -15.46929,8.52321 -32.8602,11.06795 -5.42193,0.79338 -12.81547,2.27638 -16.43009,3.29557 -12.48422,3.52012 -21.91842,4.33262 -25.19282,2.16969 z"
       id="path387" />
    <path
       style="fill:#ffffff;stroke-width:2.19068"
       d="m 259.86257,1217.1176 c -3.64197,-2.2869 -1.36789,-6.767 3.43493,-6.767 2.78222,0 3.1586,-1.5773 1.96026,-8.215 -0.81571,-4.5183 -2.9163,-20.7841 -4.66799,-36.1462 -4.07414,-35.7299 -8.78764,-76.4657 -12.86421,-111.177 -1.76877,-15.061 -4.76638,-40.6919 -6.66133,-56.95772 -1.89496,-16.2658 -4.42595,-36.96773 -5.62443,-46.00428 -1.19848,-9.03655 -3.64552,-29.24558 -5.43787,-44.90894 -1.79234,-15.66336 -4.20307,-35.87238 -5.35717,-44.90893 -1.1541,-9.03656 -2.14165,-18.5413 -2.19456,-21.12165 -0.065,-3.16882 -1.92099,-5.14953 -5.71845,-6.10263 -3.68382,-0.92459 -5.38019,-2.66803 -4.92018,-5.05671 0.87966,-4.56767 19.76138,-8.3544 52.71302,-10.57161 23.10398,-1.55459 23.54981,-1.49574 23.54981,3.10857 0,2.71123 -1.38768,4.69315 -3.28602,4.69315 -4.81777,0 -4.42378,7.95414 3.36375,67.91107 1.17372,9.03656 3.60675,29.24558 5.40674,44.90894 1.79998,15.66336 4.74516,40.80141 6.54483,55.86234 1.79968,15.0609 4.75454,40.199 6.56636,55.8623 6.92836,59.8963 9.7943,83.83 12.06687,100.7713 1.29301,9.639 2.94731,24.2565 3.67621,32.4833 1.17453,13.2563 1.93368,15.1892 6.67348,16.9913 13.47073,5.1215 -4.02136,11.1018 -40.85438,13.9675 -10.32824,0.8036 -20.25733,1.8689 -22.06464,2.3673 -1.80731,0.4985 -4.64457,0.053 -6.30503,-0.9894 z"
       id="path389" />
    <path
       style="fill:#ffffff;stroke-width:2.19068"
       d="m 122.67807,1124.7564 c 6.03178,-7.2717 29.47641,-30.6402 36.14803,-36.0307 3.01119,-2.4329 9.41811,-6.8691 14.23761,-9.858 l 8.76272,-5.4346 -16.4301,-1.3847 c -17.07529,-1.4391 -27.21262,-3.3567 -49.07423,-9.2831 -19.475937,-5.2796 -19.447771,-6.7091 0.23061,-11.7043 19.88376,-5.0473 33.22937,-6.8692 51.58197,-7.0421 9.33777,-0.088 16.97777,-0.9332 16.97777,-1.8783 0,-0.9451 -3.1377,-3.5718 -6.97266,-5.8372 -17.2071,-10.1645 -57.03334,-53.78348 -49.1069,-53.78348 3.39819,0 20.28163,6.14336 34.17276,12.43441 23.97175,10.85637 54.30827,37.37787 64.35533,56.26227 l 4.11163,7.7282 -8.11223,11.0511 c -18.3063,24.9381 -53.94221,47.2034 -87.91332,54.9281 -4.9158,1.1178 -10.83063,2.7258 -13.14408,3.5734 -4.05288,1.4848 -4.04649,1.3484 0.17509,-3.741 z"
       id="path391" />
    <path
       style="fill:#ffffff;stroke-width:2.19068"
       d="m 303.40916,699.65459 c -17.35713,-2.80353 -20.59301,-7.41659 -19.02068,-27.11587 0.67319,-8.43412 3.01017,-20.26379 5.1933,-26.28816 4.84693,-13.37516 20.61403,-40.65351 22.73897,-39.34023 2.29916,1.42096 -0.1347,29.00727 -3.65091,41.38085 -4.66363,16.41135 -4.01373,17.61986 5.27965,9.8176 8.95403,-7.51737 39.97154,-24.51096 41.65883,-22.82366 2.03658,2.03658 -11.59762,20.0492 -25.09778,33.15755 l -13.8308,13.4294 26.77258,1.04274 c 14.72492,0.57351 28.60529,1.82411 30.84528,2.77913 6.10346,2.6022 -16.76984,11.28522 -37.22146,14.12978 -18.22693,2.53513 -16.88259,2.54189 -33.66698,-0.16913 z"
       id="path393" />
    <path
       style="fill:#ffffff;stroke-width:2.19068"
       d="m 629.32311,580.39793 c -0.67517,-0.67519 -7.98657,-2.13795 -16.24755,-3.25059 -26.06215,-3.51026 -29.25938,-4.34835 -29.25938,-7.66984 0,-1.75271 1.43404,-3.18676 3.18676,-3.18676 1.99489,0 3.66457,-3.07247 4.46432,-8.21505 0.70267,-4.51827 2.25112,-13.63698 3.441,-20.26378 1.18989,-6.62681 3.07513,-18.45648 4.18944,-26.28816 1.11431,-7.83168 3.07309,-20.15426 4.35285,-27.3835 2.2998,-12.99133 5.89578,-35.099 12.29343,-75.57846 1.80905,-11.4463 4.73383,-29.68371 6.49951,-40.52757 1.76568,-10.84387 4.63403,-29.08128 6.37411,-40.52758 1.74008,-11.4463 3.62934,-22.78307 4.19836,-25.19282 0.56902,-2.40975 2.26428,-11.56413 3.76725,-20.34308 l 2.73267,-15.96172 10.03938,1.32523 c 5.52166,0.72887 15.21486,2.40013 21.54045,3.71391 12.87298,2.67363 12.99005,2.98315 9.33937,24.69362 -4.33994,25.80942 -12.771,78.275 -18.56928,115.55465 -1.73377,11.14712 -4.19855,26.18234 -5.47729,33.41158 -2.31031,13.06115 -6.16076,36.74225 -12.11066,74.48312 -1.70954,10.84386 -4.28031,27.0189 -5.71281,35.94454 -2.36168,14.71519 -2.24822,16.48899 1.21685,19.02268 2.10176,1.53685 3.17159,3.84567 2.37739,5.13073 -1.50934,2.44215 -10.51279,3.23221 -12.63617,1.10885 z"
       id="path395" />
    <path
       style="fill:#ffffff;stroke-width:2.19068"
       d="m 702.57715,542.86312 c -9.35048,-4.52857 -24.15403,-19.02842 -26.95892,-26.40584 -1.55922,-4.10105 -1.49151,-7.23747 0.22552,-10.44575 3.16105,-5.90648 24.81693,-17.62966 36.12721,-19.55706 l 8.76271,-1.49327 -5.89262,5.58038 c -3.24094,3.06922 -10.11494,7.78118 -15.27555,10.47105 l -9.38293,4.89065 13.08487,3.94304 c 7.19668,2.16867 16.04229,5.38244 19.65691,7.14171 6.28432,3.05863 5.71475,3.20086 -13.00948,3.24856 l -19.58153,0.0499 4.63412,4.31734 c 6.39276,5.95575 16.71518,19.70334 15.61808,20.80044 -0.49558,0.49558 -4.09936,-0.64793 -8.00839,-2.54113 z"
       id="path397" />
    <path
       style="fill:#ffffff;stroke-width:2.19068"
       d="m 553.14667,894.80676 c -4.21706,-0.97505 -14.32157,-3.03352 -22.45447,-4.5744 -15.05069,-2.85152 -18.56806,-6.30605 -10.70535,-10.51404 2.36636,-1.26645 4.65729,-5.67193 5.45124,-10.48282 2.08724,-12.64738 11.55318,-58.75066 16.77182,-81.68609 2.08924,-9.18202 12.77891,-60.54647 24.84718,-119.39205 1.7297,-8.43412 4.23964,-20.26379 5.57765,-26.28816 9.68999,-43.62914 10.67616,-50.36911 7.62854,-52.1375 -1.66053,-0.96353 -3.01914,-2.81569 -3.01914,-4.11592 0,-2.70688 15.16264,-1.14014 34.74707,3.59039 6.7939,1.64103 15.06352,3.58292 18.37692,4.31529 7.0464,1.5575 7.94254,5.53805 1.61905,7.19168 -2.52017,0.65904 -4.91669,3.61799 -5.60031,6.91462 -0.65724,3.16943 -2.10841,9.70583 -3.22481,14.52532 -1.11641,4.8195 -3.08264,14.18465 -4.36942,20.81146 -4.37564,22.53425 -20.92136,102.51642 -24.24517,117.20137 -2.03254,8.98 -5.77625,26.84114 -11.70879,55.86234 -1.84725,9.03655 -4.84113,23.33074 -6.65305,31.76486 -7.56934,35.23373 -8.20278,41.31712 -4.57818,43.96751 6.97885,5.10306 -2.67502,6.69601 -18.46078,3.04614 z"
       id="path399" />
    <path
       style="fill:#ffffff;stroke-width:2.19068"
       d="m 464.29115,806.22612 c 3.54148,-2.89476 12.11426,-8.03479 19.05061,-11.42228 12.87387,-6.28721 15.85357,-9.42011 9.01354,-9.47699 -5.35271,-0.0445 -21.13744,-5.73685 -31.96856,-11.52859 l -9.10669,-4.86963 12.54868,-0.65557 c 6.90178,-0.36056 17.49919,0.24422 23.54981,1.34395 6.05062,1.09974 11.00113,1.62727 11.00113,1.17229 0,-0.45498 -4.42112,-6.25517 -9.82472,-12.88933 -9.78641,-12.01507 -17.75268,-25.11756 -15.27139,-25.11756 2.33833,0 21.62729,13.61026 29.16866,20.58137 9.78367,9.04385 17.83425,21.89582 17.83425,28.47066 0,3.37765 -2.60409,7.41195 -7.11971,11.02996 -3.91584,3.13745 -8.15545,6.5307 -9.42136,7.54054 -4.79704,3.82673 -29.81992,11.23869 -37.68698,11.16317 l -8.20633,-0.0788 z"
       id="path401" />
    <path
       style="fill:#ffffff;stroke-width:2.19068"
       d="m 506.04705,1215.3954 c -24.09484,-2.1742 -37.7028,-7.2851 -28.6482,-10.7596 3.38423,-1.2987 6.32005,-16.4612 10.13392,-52.3382 2.6386,-24.8213 7.10088,-63.7882 11.91608,-104.0573 1.80092,-15.0609 4.25117,-36.7486 5.445,-48.1949 1.19383,-11.44635 3.14285,-27.71214 4.33115,-36.14626 7.83485,-55.60884 7.59511,-51.42424 3.13308,-54.68695 -2.2624,-1.65431 -3.37363,-3.74768 -2.46939,-4.65192 1.76219,-1.76218 48.36904,2.20604 54.75904,4.66232 5.00381,1.92343 4.90226,5.517 -0.19356,6.84958 -3.39765,0.88851 -4.43109,4.8806 -6.61037,25.5354 -2.481,23.51435 -5.05529,46.03172 -12.31595,107.72813 -1.84333,15.6633 -4.82466,41.2943 -6.62518,56.9576 -1.80053,15.6634 -4.17143,35.3795 -5.26867,43.8136 -7.44285,57.2107 -7.52631,58.554 -3.76857,60.657 9.63168,5.3901 1.69393,6.9337 -23.81838,4.6315 z"
       id="path403" />
    <path
       style="fill:#ffffff;stroke-width:2.19068"
       d="m 577.16196,1166.409 c -7.94979,-12.3887 -15.25258,-32.2904 -15.25258,-41.5667 0,-10.1749 4.75072,-11.9773 31.55757,-11.9731 14.70347,0 26.03557,1.0233 28.68613,2.5843 4.20201,2.4749 4.12892,2.6765 -1.78562,4.9252 -3.39184,1.2896 -12.51055,2.3447 -20.26379,2.3447 -7.75324,0 -14.09681,0.2546 -14.09681,0.5657 0,0.3111 6.46281,7.321 14.3618,15.5775 7.89898,8.2565 13.87727,15.4963 13.28508,16.0885 -1.07324,1.0733 -21.18414,-8.0398 -23.26552,-10.5426 -1.38384,-1.664 -10.22801,-6.3543 -11.98179,-6.3543 -0.72404,0 -0.40332,1.7251 0.7127,3.8337 2.15658,4.0744 7.24344,33.7824 5.99781,35.028 -0.40542,0.4054 -3.98515,-4.3245 -7.95498,-10.5109 z"
       id="path405" />
  </g>
</svg>
