<?xml version="1.0" encoding="UTF-8" standalone="no"?>
<!-- Created with Inkscape (http://www.inkscape.org/) -->

<svg
   version="1.1"
   id="svg226"
   width="733.33331"
   height="1216"
   viewBox="0 0 733.33331 1216"
   sodipodi:docname="bamboo.svg"
   inkscape:version="1.2.1 (9c6d41e410, 2022-07-14)"
   xmlns:inkscape="http://www.inkscape.org/namespaces/inkscape"
   xmlns:sodipodi="http://sodipodi.sourceforge.net/DTD/sodipodi-0.dtd"
   xmlns="http://www.w3.org/2000/svg"
   xmlns:svg="http://www.w3.org/2000/svg">
  <defs
     id="defs230" />
  <sodipodi:namedview
     id="namedview228"
     pagecolor="#ffffff"
     bordercolor="#000000"
     borderopacity="0.25"
     inkscape:showpageshadow="2"
     inkscape:pageopacity="0.0"
     inkscape:pagecheckerboard="0"
     inkscape:deskcolor="#d1d1d1"
     showgrid="false"
     inkscape:zoom="0.4564793"
     inkscape:cx="167.58701"
     inkscape:cy="798.50281"
     inkscape:window-width="1920"
     inkscape:window-height="1001"
     inkscape:window-x="-9"
     inkscape:window-y="-9"
     inkscape:window-maximized="1"
     inkscape:current-layer="g232" />
  <g
     inkscape:groupmode="layer"
     inkscape:label="Image"
     id="g232">
    <path
       style="fill:#0b9470;stroke:none;stroke-width:0.333333"
       d="M 121.80932,4.3813597 V 5.714693 h -6.66667 v 1.3333334 h -9.33333 V 8.3813597 H 97.809315 V 9.714693 h -8 v 1.333333 h -8 v 1.333334 h -8 v 1.333333 h -9.33333 v 7.999999 h 1.33333 v 8 h 1.33334 v 8 h 1.33333 v 8 h 1.33333 v 8 h 1.33334 v 9.333334 h 1.33333 v 8 h 1.33333 v 8 h 1.33334 v 8 h 1.33333 v 8 h 1.33333 v 9.333334 h 1.33334 v 8 h 1.33333 v 8 h 1.33333 v 8 h 1.33334 v 8 h 1.33333 v 9.33333 h 1.33333 v 8 h 1.33334 v 8 h 1.33333 v 8 h 1.33333 v 8 h 1.33334 v 8 h 1.33333 v 9.33334 h 1.33333 v 8 h 1.33334 v 8 h 1.33333 v 8 h 1.33333 v 8 h 1.33334 v 9.33333 h 1.333325 v 8 h 1.33334 v 8 h 1.33333 v 8 h 1.33333 v 8 h 1.33334 v 9.33333 h 1.33333 v 8 h 1.33333 v 8 h 1.33334 v 8 h 1.33333 v 8 h 1.33333 v 9.33334 h 1.33334 v 8 h 1.33333 v 8 h 1.33333 v 8 h 1.33334 v 8 h 1.33333 v 9.33333 h 1.33333 v 8 h 1.33334 v 8 h 1.33333 v 8 h 1.33333 v 8 h 1.33334 v 4 h -4 v 1.33333 h -2.66667 v 1.33334 h -1.33333 v 6.66666 h 1.33333 v 1.33334 h 1.33333 v 1.33333 h 10.66667 v -1.33333 h 8 v -1.33334 h 8 v -1.33333 h 9.3333 v -1.33333 h 8 v -1.33334 h 8 v -1.33333 h 8 v -1.33333 h 8 v -1.33334 h 5.3334 v -1.33333 h 1.3333 v -1.33333 h 1.3333 v -5.33334 h -1.3333 v -2.66666 h -2.6667 v -1.33334 h -6.6666 v -5.33333 h -1.3334 v -9.33333 h -1.3333 v -8 h -1.3333 v -8 h -1.3334 v -8 h -1.3333 v -8 h -1.3333 v -9.33334 h -1.3334 v -8 h -1.3333 v -8 h -1.3333 v -8 h -1.3334 v -8 h -1.3333 v -9.33333 h -1.3333 v -8 h -1.3334 v -8 h -1.3333 v -8 h -1.3333 v -8 h -1.3334 v -8 h -1.3333 v -9.33333 h -1.3333 v -8 h -1.3334 v -8 h -1.3333 v -8 h -1.3333 v -8 h -1.3334 v -9.33334 h -1.3333 v -8 h -1.3333 v -8 h -1.3334 v -8 h -1.3333 v -8 h -1.3333 v -9.33333 h -1.3334 v -8 h -1.3333 v -8 h -1.3333 v -8 h -1.3334 v -8 h -1.3333 v -9.33333 h -1.3333 v -8 h -1.3334 v -8.000004 h -1.3333 v -8 h -1.3333 v -8 h -1.3334 v -8 h -1.3333 v -9.333334 h -1.33333 v -8 h -1.33334 v -8 h -1.33333 v -8 h -1.33333 v -8 h -1.33334 v -9.333333 h -1.33333 V 16.38136 h -1.33333 V 8.3813597 h -1.33334 v -4 h -2.66666 M 637.80925,264.38136 v 4 h -1.3333 v 8 h -1.3333 v 8 h -1.3334 v 8 h -1.3333 v 9.33333 h -1.3333 v 8 h -1.3334 v 8 h -1.3333 v 8 h -1.3333 v 8 h -1.3334 v 9.33334 h -1.3333 v 8 h -1.3333 v 8 h -1.3334 v 8 h -1.3333 v 8 h -1.3333 v 9.33333 h -1.3334 v 8 h -1.3333 v 8 h -1.3333 v 8 h -1.3334 v 8 h -1.3333 v 8 h -1.3333 v 9.33333 h -1.3334 v 8 h -1.3333 v 8 h -1.3333 v 8 h -1.3334 v 8 h -1.3333 v 9.33334 h -1.3333 v 8 h -1.3334 v 8 h -1.3333 v 8 h -1.3333 v 8 h -1.3334 v 9.33333 h -1.3333 v 8 h -1.3333 v 8 h -1.3334 v 8 h -1.3333 v 8 h -1.3333 v 9.33333 h -1.3334 v 6.66667 h -5.3333 v 1.33333 h -2.6667 v 6.66667 h 1.3334 v 1.33333 h 5.3333 v 1.33334 h 9.3333 v 1.33333 h 6.6667 v 1.33333 h 9.3333 v 1.33334 h 8 v 1.33333 h 8 v 1.33333 h 12 v -1.33333 h 1.3334 v -5.33333 h -1.3334 v -1.33334 h -2.6666 v -1.33333 h -2.6667 v -2.66667 h 1.3333 v -8 h 1.3334 v -8 h 1.3333 v -9.33333 h 1.3333 v -8 h 1.3334 v -8 h 1.3333 v -8 h 1.3333 v -8 h 1.3334 v -9.33333 h 1.3333 v -8 h 1.3333 v -8 h 1.3334 v -8 h 1.3333 v -8 h 1.3333 v -8 h 1.3334 v -9.33334 h 1.3333 v -8 h 1.3333 v -8 h 1.3334 v -8 h 1.3333 v -8 h 1.3333 v -9.33333 h 1.3334 v -8 h 1.3333 v -8 h 1.3333 v -8 h 1.3334 v -8 h 1.3333 v -9.33333 h 1.3333 v -8 h 1.3334 v -8 h 1.3333 v -8 h 1.3333 v -8 h 1.3334 v -9.33334 h 1.3333 v -8 h 1.3333 v -8 h 1.3334 v -8 h 1.3333 v -8 h 1.3333 v -9.33333 h 1.3334 v -8 h 1.3333 v -8 h -2.6667 v -1.33333 h -8 v -1.33334 h -8 v -1.33333 h -9.3333 v -1.33333 h -8 v -1.33334 h -8 v -1.33333 h -2.6667 m -603.999935,12 v 2.66667 h 1.33334 v 5.33333 h 1.33333 v 5.33333 h 1.33333 v 4 h 1.33334 v 4 h 1.33333 v 4 h 1.33333 v 2.66667 h 1.33334 v 2.66667 h 1.33333 v 2.66666 h 1.33333 v 2.66667 h 1.33334 v 2.66667 h 1.33333 v 1.33333 h 1.33333 v 2.66667 h 1.33334 v 1.33333 h 1.33333 v 2.66667 h -2.66667 v -1.33334 h -2.66666 v -1.33333 h -2.66667 v -1.33333 h -4 v -1.33334 h -4 v -1.33333 h -4 v -1.33333 h -6.66667 v -1.33334 h -6.66666 v -1.33333 H 4.4759846 v 1.33333 h 1.33334 v 1.33334 h 1.33333 v 1.33333 h 1.33333 v 1.33333 h 2.6666704 v 1.33334 h 1.33333 v 1.33333 h 1.33333 v 1.33333 h 1.33334 v 1.33334 h 2.66666 v 1.33333 h 1.33334 v 1.33333 h 2.66666 v 1.33334 h 1.33334 v 1.33333 h 2.66666 v 1.33333 h 1.33334 v 1.33334 h 2.66666 v 1.33333 h 2.66667 v 1.33333 h 2.66667 v 1.33334 h 2.66666 v 1.33333 h 4 v 1.33333 h 2.66667 v 1.33334 h -9.33333 v 1.33333 h -5.33334 v 1.33333 h -4 v 1.33334 h -4 v 1.33333 h -4 v 1.33333 h -4 v 1.33334 h -2.66666 v 1.33333 H 8.4759846 v 1.33333 h -2.66666 v 1.33334 h -2.66667 v 1.33333 H 0.47598465 v 1.33333 h -1.33333 v 1.33334 H 4.4759846 v 1.33333 H 15.142655 v 1.33333 h 18.66666 v -1.33333 h 9.33334 v -1.33333 h 5.33333 v -1.33334 h 5.33333 v -1.33333 h 4 v -1.33333 h 2.66667 v -1.33334 h 2.66667 v -1.33333 h 2.66666 v -1.33333 h 1.33334 v -1.33334 h 2.66666 v -1.33333 h 1.33334 v -1.33333 h 1.33333 v -1.33334 h 1.33333 v -9.33333 h -1.33333 v -6.66667 h -1.33333 v -4 h -1.33334 v -2.66666 h -1.33333 v -4 h -1.33333 v -2.66667 h -1.33334 v -2.66667 h -1.33333 v -1.33333 h -1.33333 v -2.66667 h -1.33334 v -1.33333 h -1.33333 v -2.66667 h -1.33333 v -1.33333 h -1.33334 v -2.66667 h -1.33333 v -1.33333 h -1.33333 v -1.33333 h -1.33334 v -1.33334 h -1.33333 v -1.33333 h -1.33333 v -1.33333 h -1.33334 v -1.33334 h -1.33333 v -1.33333 h -1.33333 v -1.33333 h -1.33334 v -1.33334 h -1.33333 v -1.33333 h -1.33333 v -1.33333 h -1.33334 v -1.33334 h -1.33333 v -1.33333 h -1.33333 v -1.33333 h -2.66667 v -1.33334 h -1.33333 v -1.33333 h -1.33334 m 20,46.66667 v 1.33333 h -1.33333 v -1.33333 h 1.33333 m 141.333335,85.33333 v 1.33333 h -8 v 1.33334 h -6.6667 v 1.33333 h -6.6666 v 1.33333 h -6.6667 v 1.33334 h -5.3333 v 1.33333 h -6.6667 v 1.33333 h -6.6667 v 1.33334 h -6.6666 v 1.33333 h -6.6667 v 1.33333 h -4 v 1.33334 h -4 v 1.33333 h -1.33333 v 8 h 1.33333 v 1.33333 h 2.66667 v 1.33334 h 2.66666 v -1.33334 h 2.66667 v 1.33334 h 1.3333 v 6.66666 h 1.3334 v 5.33334 h 1.3333 v 6.66666 h 1.3333 v 6.66667 h 1.3334 v 6.66667 h 1.3333 v 5.33333 h 1.3333 v 6.66667 h 1.3334 v 6.66666 h 1.3333 v 6.66667 h 1.3333 v 6.66667 h 1.3334 v 5.33333 h 1.3333 v 6.66667 h 1.3333 v 6.66666 h 1.3334 v 6.66667 h 1.3333 v 6.66667 h 1.3333 v 5.33333 h 1.3334 v 6.66667 h 1.3333 v 6.66666 h 1.3333 v 6.66667 h 1.3334 v 5.33333 h 1.3333 v 6.66667 h 1.3333 v 6.66667 h 1.3334 v 6.66666 h 1.3333 v 6.66667 h 1.3333 v 5.33333 h 1.3334 v 6.66667 h 1.3333 v 6.66667 h 1.3333 v 6.66666 h 1.3334 v 5.33334 h 1.3333 v 6.66666 h 1.3333 v 6.66667 h 1.3334 v 6.66667 h 1.3333 v 6.66666 h 1.3333 v 5.33334 h 1.3334 v 6.66666 h 1.3333 v 6.66667 h 1.3333 v 6.66667 h 1.3334 v 6.66666 h 1.3333 v 5.33334 h 1.3333 v 6.66666 h 1.3334 v 6.66667 h 1.3333 v 6.66667 h 1.3333 v 5.33333 h 1.3334 v 6.66667 h 1.3333 v 6.66666 h 1.3333 v 6.66667 h 1.3334 v 6.66667 h 1.3333 v 5.33333 h 1.3333 v 6.66667 h 1.3334 v 6.66666 h 1.3333 v 6.66667 h 1.3333 v 5.33333 h 1.3334 v 6.66667 h 1.3333 v 6.66667 h 1.3333 v 6.66666 h 1.3334 v 6.66667 h 1.3333 v 5.33333 h 1.3333 v 2.66667 h -2.6666 v 1.33333 h -2.6667 v 1.33334 h -1.3333 v 1.33333 h -1.3334 v 5.33333 h 1.3334 v 1.33334 h 1.3333 v 1.33333 h 10.6667 v -1.33333 h 6.6666 v -1.33334 h 5.3334 v -1.33333 h 6.6666 v -1.33333 h 6.6667 v -1.33334 h 6.6667 v -1.33333 h 6.6666 v -1.33333 h 5.3334 v -1.33334 h 6.6666 v -1.33333 h 6.6667 v -1.33333 h 4 v -1.33334 h 2.6667 v -2.66666 h 1.3333 v -2.66667 h -1.3333 v -2.66667 h -1.3334 v -1.33333 h -1.3333 v -1.33333 h -5.3333 v 1.33333 h -1.3334 v -2.66667 h -1.3333 v -6.66666 h -1.3333 v -6.66667 h -1.3334 v -5.33333 h -1.3333 v -6.66667 h -1.3333 v -6.66667 h -1.3334 v -6.66666 h -1.3333 v -5.33334 h -1.3333 v -6.66666 h -1.3334 v -6.66667 h -1.3333 v -6.66667 h -1.3333 v -6.66666 h -1.3334 v -5.33334 h -1.3333 v -6.66666 h -1.3333 v -6.66667 h -1.3334 v -6.66667 h -1.3333 v -6.66666 h -1.3333 v -5.33334 h -1.3334 v -6.66666 h -1.3333 v -6.66667 h -1.3333 v -6.66667 h -1.3334 v -5.33333 h -1.3333 v -6.66667 h -1.3333 v -6.66666 h -1.3334 v -6.66667 h -1.3333 v -6.66667 h -1.3333 v -5.33333 h -1.3334 v -6.66667 h -1.3333 v -6.66666 h -1.3333 v -6.66667 h -1.3334 v -5.33333 h -1.3333 v -6.66667 h -1.3333 v -6.66667 h -1.3334 v -6.66666 h -1.3333 v -6.66667 h -1.3333 v -5.33333 h -1.3334 v -6.66667 h -1.3333 v -6.66667 h -1.3333 v -6.66666 h -1.3334 v -6.66667 h -1.3333 v -5.33333 h -1.3333 v -6.66667 h -1.3334 v -6.66667 h -1.3333 v -6.66666 h -1.3333 v -5.33334 h -1.3334 v -6.66666 h -1.3333 v -6.66667 h -1.3333 v -6.66667 h -1.3334 v -6.66666 h -1.3333 v -5.33334 h -1.3333 v -6.66666 h -1.3334 v -6.66667 h -1.3333 v -6.66667 h -1.3333 v -5.33333 h -1.3334 v -6.66667 h -1.3333 v -6.66666 h -1.3333 v -6.66667 h -1.3334 v -8 h 4 v -1.33333 h 1.3334 v -1.33334 h 1.3333 v -6.66666 h -1.3333 v -1.33334 h -2.6667 v -1.33333 h -4 m 525.3333,74.66667 v 1.33333 h -8 v 1.33333 h -6.6667 v 1.33334 h -4 v 1.33333 h -4 v 1.33333 h -2.6666 v 1.33334 h -2.6667 v 1.33333 h -2.6667 v 1.33333 h -2.6666 v 1.33334 h -1.3334 v 1.33333 h -2.6666 v 1.33333 h -1.3334 v 1.33334 h -2.6666 v 1.33333 h -1.3334 v 1.33333 h -1.3333 v 1.33334 h -1.3333 v 1.33333 h -1.3334 v 2.66667 h -1.3333 v 2.66666 h -1.3333 v 2.66667 h 1.3333 v 2.66667 h 1.3333 v 2.66666 h 1.3334 v 2.66667 h 1.3333 v 2.66667 h 1.3333 v 1.33333 h 1.3334 v 1.33333 h 1.3333 v 1.33334 h 1.3333 v 2.66666 h 1.3334 v 1.33334 h 1.3333 v 1.33333 h 1.3333 v 1.33333 h 2.6667 v 1.33334 h 1.3333 v 1.33333 h 1.3334 v 1.33333 h 1.3333 v 1.33334 h 2.6667 v 1.33333 h 1.3333 v 1.33333 h 2.6667 v 1.33334 h 2.6666 v 1.33333 h 2.6667 v 1.33333 h 2.6667 v 1.33334 h 2.6666 v 1.33333 h 2.6667 v 1.33333 h 2.6667 v -1.33333 h -1.3334 v -2.66667 h -1.3333 v -2.66666 h -1.3333 v -1.33334 h -1.3334 v -2.66666 h -1.3333 v -1.33334 h -1.3333 v -2.66666 h -1.3334 v -1.33334 h -1.3333 v -1.33333 h -1.3333 v -2.66667 h -1.3334 v -1.33333 h -1.3333 v -1.33333 h -1.3333 v -1.33334 h -1.3334 v -1.33333 h -1.3333 v -1.33333 h -1.3333 v -1.33334 h -2.6667 v -1.33333 h 5.3333 v 1.33333 h 25.3334 v -1.33333 h 6.6666 v -1.33333 h -1.3333 v -1.33334 h -2.6667 v -1.33333 h -2.6666 v -1.33333 h -2.6667 v -1.33334 h -2.6667 v -1.33333 h -4 v -1.33333 h -4 v -1.33334 h -4 v -1.33333 h -6.6666 v -1.33333 h -8 v -1.33334 h 4 v -1.33333 h 2.6666 v -1.33333 h 2.6667 v -1.33334 h 2.6667 v -1.33333 h 2.6666 v -1.33333 h 1.3334 v -1.33334 h 2.6666 v -1.33333 h 1.3334 v -1.33333 h 1.3333 v -1.33334 h 2.6667 v -1.33333 h 1.3333 v -1.33333 h 1.3333 v -1.33334 h 1.3334 v -1.33333 h 1.3333 v -1.33333 h 1.3333 v -1.33334 h 1.3334 v -1.33333 h 1.3333 v -1.33333 h -4 m -142.6667,98.66666 v 1.33334 h -1.3333 v 2.66666 h -1.3333 v 1.33334 h 1.3333 v 2.66666 h 1.3333 v 1.33334 h 4 v 4 h -1.3333 v 6.66666 h -1.3333 v 6.66667 h -1.3334 v 6.66667 h -1.3333 v 5.33333 h -1.3333 v 6.66667 h -1.3334 v 6.66666 h -1.3333 v 6.66667 h -1.3333 v 6.66667 h -1.3334 v 5.33333 h -1.3333 v 6.66667 h -1.3333 v 6.66666 h -1.3334 v 6.66667 h -1.3333 v 6.66667 h -1.3333 v 5.33333 h -1.3334 v 6.66667 h -1.3333 v 6.66666 h -1.3333 v 6.66667 h -1.3334 v 5.33333 h -1.3333 v 6.66667 h -1.3333 v 6.66667 h -1.3334 v 6.66666 h -1.3333 v 6.66667 h -1.3333 v 5.33333 h -1.3334 v 6.66667 h -1.3333 v 6.66667 h -1.3333 v 6.66666 h -1.3334 v 5.33334 h -1.3333 v 6.66666 h -1.3333 v 6.66667 h -1.3334 v 6.66667 h -1.3333 v 6.66666 h -1.3333 v 5.33334 h -1.3334 v 6.66666 h -1.3333 v 6.66667 h -1.3333 v 6.66667 h -1.3334 v 5.33333 h -1.3333 v 6.66667 h -1.3333 v 6.66666 h -1.3334 v 6.66667 h -1.3333 v 6.66667 h -1.3333 v 5.33333 h -1.3334 v 6.66667 h -1.3333 v 6.66666 h -1.3333 v 6.66667 h -1.3334 v 2.66667 h -5.3333 v 1.33333 h -1.3333 v 1.33333 h -1.3334 v 5.33334 h 1.3334 v 1.33333 h 5.3333 v 1.33333 h 6.6667 v 1.33334 h 5.3333 v 1.33333 h 6.6667 v 1.33333 h 6.6666 v 1.33334 h 6.6667 v 1.33333 h 5.3333 v 1.33333 h 6.6667 v 1.33334 h 9.3333 v -2.66667 h 1.3334 v -4 h -1.3334 v -1.33333 h -1.3333 v -1.33334 h -4 v -1.33333 h 1.3333 v -6.66667 h 1.3334 v -6.66666 h 1.3333 v -6.66667 h 1.3333 v -6.66667 h 1.3334 v -5.33333 h 1.3333 v -6.66667 h 1.3333 v -6.66666 h 1.3334 v -6.66667 h 1.3333 v -6.66667 h 1.3333 v -5.33333 h 1.3334 v -6.66667 h 1.3333 v -6.66666 h 1.3333 v -6.66667 h 1.3334 v -5.33333 h 1.3333 v -6.66667 h 1.3333 v -6.66667 h 1.3334 v -6.66666 h 1.3333 v -6.66667 h 1.3333 v -5.33333 h 1.3334 v -6.66667 h 1.3333 v -6.66667 h 1.3333 v -6.66666 h 1.3334 v -5.33334 h 1.3333 v -6.66666 h 1.3333 v -6.66667 h 1.3334 v -6.66667 h 1.3333 v -6.66666 h 1.3333 v -5.33334 h 1.3334 v -6.66666 h 1.3333 v -6.66667 h 1.3333 v -6.66667 h 1.3334 v -5.33333 h 1.3333 v -6.66667 h 1.3333 v -6.66666 h 1.3334 v -6.66667 h 1.3333 v -6.66667 h 1.3333 v -5.33333 h 1.3334 v -6.66667 h 1.3333 v -6.66666 h 1.3333 v -6.66667 h 1.3334 v -6.66667 h 1.3333 v -5.33333 h 1.3333 v -6.66667 h 1.3334 v -6.66666 h 1.3333 v -5.33334 h 6.6667 v -1.33333 h 1.3333 v -6.66667 h -2.6667 v -1.33333 h -4 v -1.33333 h -6.6666 v -1.33334 h -5.3334 v -1.33333 h -6.6666 v -1.33333 h -6.6667 v -1.33334 h -6.6667 v -1.33333 h -6.6666 v -1.33333 h -5.3334 v -1.33334 h -8 m -265.3333,20 v 1.33334 h -1.3333 v 2.66666 h -1.3333 v 1.33334 h -1.3334 v 2.66666 h -1.3333 v 1.33334 h -1.3333 v 1.33333 h -1.3334 v 2.66667 h -1.3333 v 2.66666 h -1.3333 v 1.33334 h -1.3334 v 2.66666 h -1.3333 v 2.66667 h -1.3333 v 1.33333 h -1.3334 v 2.66667 h -1.3333 v 2.66667 h -1.3333 v 2.66666 h -1.3334 v 2.66667 h -1.3333 v 4 h -1.3333 v 2.66667 h -1.3334 v 4 h -1.3333 v 5.33333 h -1.3333 v 4 h -1.3334 v 8 h -1.3333 v 26.66667 h 1.3333 v 2.66666 h 1.3334 v 1.33334 h 1.3333 v 1.33333 h 2.6667 v 1.33333 h 4 v 1.33334 h 4 v 1.33333 h 5.3333 v 1.33333 h 10.6667 v 1.33334 h 14.6666 v -1.33334 h 12 v -1.33333 h 6.6667 v -1.33333 h 5.3333 v -1.33334 h 5.3334 v -1.33333 h 4 v -1.33333 h 4 v -1.33334 h 2.6666 v -1.33333 h 4 v -1.33333 h 2.6667 v -1.33334 h 4 v -1.33333 h 2.6667 v -1.33333 h -1.3334 v -1.33334 h -5.3333 v -1.33333 h -5.3333 v -1.33333 h -6.6667 v -1.33334 h -9.3333 v -1.33333 h -30.6667 v 1.33333 h -5.3333 v -1.33333 h 1.3333 v -1.33333 h 2.6667 v -1.33334 h 1.3333 v -1.33333 h 1.3333 v -1.33333 h 1.3334 v -1.33334 h 2.6666 v -1.33333 h 1.3334 v -1.33333 h 1.3333 v -1.33334 h 1.3333 v -1.33333 h 1.3334 v -1.33333 h 1.3333 v -1.33334 h 1.3333 v -1.33333 h 1.3334 v -1.33333 h 1.3333 v -1.33334 h 1.3333 v -1.33333 h 1.3334 v -2.66667 h 1.3333 v -1.33333 h 1.3333 v -1.33333 h 1.3334 v -1.33334 h 1.3333 v -2.66666 h 1.3333 v -1.33334 h 1.3334 v -2.66666 h 1.3333 v -1.33334 h 1.3333 v -2.66666 h 1.3334 v -1.33334 h 1.3333 v -2.66666 h 1.3333 v -1.33334 h 1.3334 v -2.66666 h 1.3333 v -2.66667 h 1.3333 v -1.33333 h -1.3333 v 1.33333 h -4 v 1.33333 h -2.6667 v 1.33334 h -4 v 1.33333 h -2.6666 v 1.33333 h -2.6667 v 1.33334 h -2.6667 v 1.33333 h -2.6666 v 1.33333 h -2.6667 v 1.33334 h -2.6667 v 1.33333 h -2.6666 v 1.33333 h -1.3334 v 1.33334 h -2.6666 v 1.33333 h -2.6667 v 1.33333 h -1.3333 v 1.33334 h -2.6667 v 1.33333 h -1.3333 v 1.33333 h -1.3334 v 1.33334 h -2.6666 v 1.33333 h -1.3334 v 1.33333 h -1.3333 v 1.33334 h -1.3333 v 1.33333 h -1.3334 v 1.33333 h -1.3333 v 1.33334 h -1.3333 v -2.66667 h 1.3333 v -4 h 1.3333 v -4 h 1.3334 v -5.33333 h 1.3333 v -5.33334 h 1.3333 v -8 h 1.3334 v -18.66666 h 1.3333 v -8 h -1.3333 v -5.33334 h -1.3334 m 157.3333,129.33334 v 1.33333 h 1.3334 v 2.66667 h 1.3333 v 4 h 1.3333 v 1.33333 h 1.3334 v 2.66667 h 1.3333 v 2.66666 h 1.3333 v 1.33334 h 1.3334 v 2.66666 h 1.3333 v 1.33334 h 1.3333 v 2.66666 h 1.3334 v 1.33334 h 1.3333 v 1.33333 h 1.3333 v 2.66667 h 1.3334 v 1.33333 h 1.3333 v 1.33333 h 1.3333 v 1.33334 h 1.3334 v 1.33333 h 1.3333 v 1.33333 h 1.3333 v 1.33334 h 1.3334 v 1.33333 h 1.3333 v 1.33333 h -5.3333 v -1.33333 h -8 v -1.33333 h -30.6667 v 1.33333 h -4 v 1.33333 h 2.6667 v 1.33334 h 1.3333 v 1.33333 h 2.6667 v 1.33333 h 2.6667 v 1.33334 h 2.6666 v 1.33333 h 2.6667 v 1.33333 h 2.6667 v 1.33334 h 2.6666 v 1.33333 h 2.6667 v 1.33333 h 4 v 1.33334 h 4 v 1.33333 h 5.3333 v 1.33333 h 5.3333 v 1.33334 h 5.3334 v 1.33333 h -4 v 1.33333 h -2.6667 v 1.33334 h -4 v 1.33333 h -2.6667 v 1.33333 h -2.6666 v 1.33334 h -1.3334 v 1.33333 h -2.6666 v 1.33333 h -2.6667 v 1.33334 h -1.3333 v 1.33333 h -2.6667 v 1.33333 h -1.3333 v 1.33334 h -1.3333 v 1.33333 h -2.6667 v 1.33333 h -1.3333 v 1.33334 h -1.3334 v 1.33333 h -1.3333 v 1.33333 h -2.6667 v 1.33334 h -1.3333 v 1.33333 h -1.3333 v 1.33333 h -1.3334 v 1.33334 h 8 v -1.33334 h 10.6667 v -1.33333 h 6.6666 v -1.33333 h 5.3334 v -1.33334 h 4 v -1.33333 h 4 v -1.33333 h 2.6666 v -1.33334 h 4 v -1.33333 h 2.6667 v -1.33333 h 2.6667 v -1.33334 h 1.3333 v -1.33333 h 2.6667 v -1.33333 h 1.3333 v -1.33334 h 2.6667 v -1.33333 h 1.3333 v -1.33333 h 1.3333 v -1.33334 h 1.3334 v -1.33333 h 1.3333 v -1.33333 h 1.3333 v -1.33334 h 1.3334 v -1.33333 h 1.3333 v -1.33333 h 1.3333 v -1.33334 h 1.3334 v -1.33333 h -1.3334 v -1.33333 h 1.3334 v -2.66667 h -1.3334 v -4 h -1.3333 v -2.66667 h -1.3333 v -2.66666 h -1.3334 v -2.66667 h -1.3333 v -1.33333 h -1.3333 v -2.66667 h -1.3334 v -1.33333 h -1.3333 v -2.66667 h -1.3333 v -1.33333 h -1.3334 v -1.33334 h -1.3333 v -1.33333 h -1.3333 v -1.33333 h -1.3334 v -1.33334 h -1.3333 v -1.33333 h -1.3333 v -1.33333 h -1.3334 v -1.33334 h -1.3333 v -1.33333 h -1.3333 v -1.33333 h -2.6667 v -1.33334 h -1.3333 v -1.33333 h -1.3334 v -1.33333 h -1.3333 v -1.33334 h -2.6667 v -1.33333 h -2.6666 v -1.33333 h -1.3334 v -1.33334 h -2.6666 v -1.33333 h -2.6667 v -1.33333 h -1.3333 v -1.33334 h -2.6667 v -1.33333 h -2.6667 v -1.33333 h -4 m 28,38.66666 v 1.33334 h -1.3333 v -1.33334 h 1.3333 m -226.6666,46.66667 v 1.33333 h -12 v 1.33334 h -10.6667 v 1.33333 h -12 v 1.33333 h -10.6666 v 1.33334 h -9.3334 v 1.33333 h -4 v 1.33333 h -1.3333 v 8 h 1.3333 v 1.33334 h 2.6667 v 1.33333 h 5.3333 v 4 h 1.3334 v 12 h 1.3333 v 10.66667 h 1.3333 v 12 h 1.3334 v 10.66666 h 1.3333 v 12 h 1.3333 v 10.66667 h 1.3334 v 10.66667 h 1.3333 v 12 h 1.3333 v 10.66666 h 1.3334 v 12 h 1.3333 v 10.66667 h 1.3333 v 12 h 1.3334 v 10.66667 h 1.3333 v 10.66666 h 1.3333 v 12.00001 h 1.3334 v 10.6667 h 1.3333 v 12 h 1.3333 v 10.6667 h 1.3334 v 12 h 1.3333 v 10.6666 h 1.3333 v 10.6667 h 1.3334 v 12 h 1.3333 v 10.6667 h 1.3333 v 12 h 1.3334 v 10.6666 h 1.3333 v 12 h 1.3333 v 10.6667 h 1.3334 v 10.6667 h 1.3333 v 12 h 1.3333 v 10.6666 h 1.3334 v 12 h 1.3333 v 10.6667 h 1.3333 v 8 h -5.3333 v 1.3333 h -1.3333 v 1.3334 h -1.3334 v 6.6666 h 1.3334 v 1.3334 h 2.6666 v 1.3333 h 5.3334 v -1.3333 h 10.6666 v -1.3334 h 12 v -1.3333 h 10.6667 v -1.3333 h 12 v -1.3334 h 10.6667 v -1.3333 h 9.3333 v -1.3333 h 2.6667 v -1.3334 h 1.3333 v -6.6666 h -1.3333 v -1.3334 h -1.3334 v -1.3333 h -6.6666 v -2.6667 h -1.3334 v -12 h -1.3333 v -10.6666 h -1.3333 v -12 h -1.3334 v -10.6667 h -1.3333 v -10.6667 h -1.3333 v -12 h -1.3334 v -10.6666 h -1.3333 v -12 h -1.3333 v -10.6667 h -1.3334 v -12 h -1.3333 v -10.6667 h -1.3333 v -10.6666 h -1.3334 v -12 h -1.3333 v -10.6667 h -1.3333 v -12 h -1.3334 v -10.6667 h -1.3333 v -12 h -1.3333 v -10.66667 h -1.3334 v -10.66667 h -1.3333 v -12 h -1.3333 v -10.66667 h -1.3334 v -12 h -1.3333 v -10.66666 h -1.3333 v -12 h -1.3334 v -10.66667 h -1.3333 v -10.66667 h -1.3333 v -12 h -1.3334 v -10.66666 h -1.3333 v -12 h -1.3333 v -10.66667 h -1.3334 v -12 h -1.3333 v -10.66667 h -1.3333 v -9.33333 h 4 v -1.33333 h 2.6666 v -1.33334 h 1.3334 v -8 h -1.3334 v -1.33333 h -17.3333 m 238.6666,85.33333 v 1.33334 h -1.3333 v 6.66666 h 1.3333 v 1.33334 h 4 v 12 h -1.3333 v 12 h -1.3333 v 10.66666 h -1.3334 v 12 h -1.3333 v 10.66667 h -1.3333 v 12 h -1.3334 v 10.66667 h -1.3333 v 10.66667 h -1.3333 v 12 h -1.3334 v 10.6667 h -1.3333 v 12 h -1.3333 v 10.6667 h -1.3334 v 12 h -1.3333 v 10.6666 h -1.3333 v 10.6667 h -1.3334 v 12 h -1.3333 v 10.6667 h -1.3333 v 12 h -1.3334 v 10.6666 h -1.3333 v 12 h -1.3333 v 10.6667 h -1.3334 v 12 h -1.3333 v 10.6667 h -1.3333 v 10.6666 h -1.3334 v 12 h -1.3333 v 9.3334 h -5.3333 v 1.3333 h -1.3334 v 1.3333 h -1.3333 v 5.3334 h 1.3333 v 1.3333 h 5.3334 v 1.3333 h 10.6666 v 1.3334 h 12 v 1.3333 h 10.6667 v 1.3333 h 10.6667 v 1.3334 h 9.3333 v -1.3334 h 1.3333 v -6.6666 h -1.3333 v -1.3334 h -4 v -13.3333 h 1.3333 v -10.6667 h 1.3334 v -10.6666 h 1.3333 v -12 h 1.3333 v -10.6667 h 1.3334 v -12 h 1.3333 v -10.6667 h 1.3333 v -12 h 1.3334 v -10.6666 h 1.3333 v -12 h 1.3333 v -10.6667 h 1.3334 v -10.6667 h 1.3333 v -12 h 1.3333 v -10.6666 h 1.3334 v -12 h 1.3333 v -10.6667 h 1.3333 v -12 h 1.3334 v -10.6667 h 1.3333 v -10.66667 h 1.3333 v -12 h 1.3334 v -10.66667 h 1.3333 v -12 h 1.3333 v -10.66667 h 1.3334 v -12 h 1.3333 v -10.66666 h 1.3333 v -9.33334 h 5.3334 v -1.33333 h 1.3333 v -1.33333 h 1.3333 v -5.33334 h -1.3333 v -1.33333 h -4 v -1.33333 h -9.3333 v -1.33334 h -10.6667 v -1.33333 h -12 v -1.33333 h -10.6667 v -1.33334 h -12 m -387.99993,77.33334 v 1.33333 h 1.33333 v 1.33333 h 1.33333 v 2.66667 h 1.33334 v 1.33333 h 1.33333 v 2.66667 h 1.33333 v 1.33333 h 1.33334 v 2.66667 h 1.33333 v 1.33333 h 1.33333 v 1.33334 h 1.33334 v 1.33333 h 1.33333 v 2.66667 h 1.3333 v 1.33337 h 1.3334 v 1.3333 h 1.3333 v 1.3333 h 1.3333 v 2.6667 h 1.3334 v 1.3334 h 1.3333 v 1.3333 h 1.3333 v 1.3333 h 1.3334 v 1.3334 h 1.3333 v 1.3333 h 1.3333 v 1.3333 h 1.3334 v 1.3334 h 1.3333 v 1.3333 h 1.3333 v 1.3333 h 1.3334 v 1.3334 h 1.3333 v 1.3333 h 1.3333 v 1.3333 h 1.3334 v 1.3334 h 1.3333 v 1.3333 h 1.3333 v 1.3333 h 1.3334 v 1.3334 h 2.6666 v 1.3333 h 1.3334 v 1.3333 h 1.3333 v 1.3334 h 1.3333 v 1.3333 h 2.6667 v 1.3333 h 1.3333 v 1.3334 h 1.3334 v 1.3333 h 2.6666 v 1.3333 h 1.3334 v 1.3334 h 2.6666 v 1.3333 h 2.6667 v 1.3333 h 1.3333 v 1.3334 h -5.3333 v -1.3334 h -20 v 1.3334 h -13.3333 v 1.3333 h -9.3334 v 1.3333 h -6.66663 v 1.3334 h -5.33334 v 1.3333 h -5.33333 v 1.3333 h -5.33333 v 1.3334 h -4 v 1.3333 h -4 v 1.3333 h -4 v 1.3334 h -4.000005 v 1.3333 h -2.66666 v 1.3333 h 4 v 1.3334 h 2.666665 v 1.3333 h 4 v 1.3333 h 4 v 1.3334 h 5.33333 v 1.3333 h 4 v 1.3333 h 4 v 1.3334 h 5.33333 v 1.3333 h 6.66667 v 1.3333 h 6.6667 v 1.3334 h 9.3333 v 1.3333 h 29.3333 v 1.3333 h -2.6666 v 1.3334 h -1.3334 v 1.3333 h -2.6666 v 1.3333 h -2.6667 v 1.3334 h -1.3333 v 1.3333 h -2.6667 v 1.3333 h -1.3333 v 1.3334 h -2.6667 v 1.3333 h -1.3333 v 1.3333 h -1.3334 v 1.3334 h -2.6666 v 1.3333 h -1.3334 v 1.3333 h -1.3333 v 1.3334 h -1.3333 v 1.3333 h -2.6667 v 1.3333 h -1.3333 v 1.3334 h -1.3334 v 1.3333 h -1.3333 v 1.3333 h -1.3333 v 1.3334 h -1.3334 v 1.3333 h -1.3333 v 1.3333 h -1.3333 v 1.3334 h -1.3334 v 1.3333 h -1.3333 v 1.3333 h -1.3333 v 1.3334 h -1.3334 v 1.3333 h -1.3333 v 1.3333 h -1.33333 v 1.3334 h -1.33334 v 1.3333 h -1.33333 v 1.3333 h -1.33333 v 1.3334 h -1.33334 v 1.3333 h -1.33333 v 1.3333 h -1.33333 v 2.6667 h -1.33334 v 1.3333 h -1.33333 v 1.3334 h -1.33333 v 1.3333 h -1.33334 v 2.6667 h -1.33333 v 1.3333 h -1.33333 v 1.3333 h -1.33334 v 1.3334 h 4 v -1.3334 h 5.33334 v -1.3333 h 5.33333 v -1.3333 h 5.3333 v -1.3334 h 5.3334 v -1.3333 h 4 v -1.3333 h 4 v -1.3334 h 4 v -1.3333 h 2.6666 v -1.3333 h 4 v -1.3334 h 2.6667 v -1.3333 h 4 v -1.3333 h 2.6667 v -1.3334 h 2.6666 v -1.3333 h 2.6667 v -1.3333 h 2.6667 v -1.3334 h 2.6666 v -1.3333 h 2.6667 v -1.3333 h 1.3333 v -1.3334 h 2.6667 v -1.3333 h 2.6667 v -1.3333 h 1.3333 v -1.3334 h 2.6667 v -1.3333 h 1.3333 v -1.3333 h 1.3333 v -1.3334 h 2.6667 v -1.3333 h 1.3333 v -1.3333 h 1.3334 v -1.3334 h 2.6666 v -1.3333 h 1.3334 v -1.3333 h 1.3333 v -1.3334 h 1.3333 v -1.3333 h 1.3334 v -1.3333 h 1.3333 v -1.3334 h 1.3333 v -1.3333 h 1.3334 v -1.3333 h 1.3333 v -1.3334 h 1.3333 v -1.3333 h 1.3334 v -1.3333 h 1.3333 v -1.3334 h 1.3333 v -1.3333 h 1.3334 v -2.6667 h 1.3333 v -1.3333 h 1.3333 v -1.3333 h 1.3334 v -2.6667 h 1.3333 v -1.3333 h 1.3333 v -2.6667 h 1.3334 v -1.3333 h 1.3333 v -2.6667 h 1.3333 v -2.6667 h -1.3333 v -4 h -1.3333 v -2.6666 h -1.3334 v -2.6667 h -1.3333 v -1.3333 h -1.3333 v -2.6667 h -1.3334 v -1.3333 h -1.3333 v -2.6667 h -1.3333 v -1.3333 h -1.3334 v -1.3334 h -1.3333 v -2.6666 h -1.3333 v -1.3334 h -1.3334 v -1.3333 h -1.3333 v -1.3333 h -1.3333 v -1.3334 h -1.3334 v -2.6666 h -1.3333 v -1.3334 h -1.3333 v -1.3333 h -1.3334 v -1.3333 h -2.6666 v -1.3334 h -1.3334 v -1.3333 h -1.3333 v -1.3333 h -1.3333 v -1.3334 h -1.3334 v -1.3333 h -1.3333 v -1.3333 h -1.3333 v -1.3334 h -2.6667 v -1.3333 h -1.3333 v -1.3333 h -1.3334 v -1.3334 h -2.6666 v -1.3333 h -1.3334 v -1.3333 h -2.6666 v -1.3334 h -1.3334 v -1.3333 h -2.6666 v -1.3334 h -1.3334 v -1.3333 h -2.6666 v -1.3333 h -2.6667 v -1.33337 h -2.6667 v -1.33334 h -2.6666 v -1.33333 h -1.3334 v -1.33333 h -2.6666 v -1.33334 h -4 v -1.33333 h -2.6667 v -1.33333 h -2.6667 v -1.33334 h -2.6666 v -1.33333 h -4 v -1.33333 h -2.6667 v -1.33334 h -4 v -1.33333 h -4 v -1.33333 h -4 v -1.33334 h -4 v -1.33333 h -5.33333 v -1.33333 h -4 m 457.33333,130.66667 v 1.3334 h -5.3334 v 1.3333 h -4 v 1.3333 h -4 v 1.3334 h -2.6666 v 1.3333 h -1.3334 v 18.6667 h 1.3334 v 6.6666 h 1.3333 v 4 h 1.3333 v 4 h 1.3334 v 2.6667 h 1.3333 v 2.6667 h 1.3333 v 2.6666 h 1.3334 v 2.6667 h 1.3333 v 2.6667 h 1.3333 v 2.6666 h 1.3334 v 1.3334 h 1.3333 v 2.6666 h 1.3333 v 1.3334 h 1.3334 v 1.3333 h 1.3333 v 2.6667 h 1.3333 v 1.3333 h 1.3334 v 1.3333 h 1.3333 v 1.3334 h 1.3333 v 1.3333 h 1.3334 v -9.3333 h -1.3334 v -12 h -1.3333 v -5.3334 h -1.3333 v -5.3333 h -1.3334 v -4 h -1.3333 v -4 h 1.3333 v 1.3333 h 2.6667 v 1.3334 h 1.3333 v 1.3333 h 2.6667 v 1.3333 h 1.3333 v 1.3334 h 2.6667 v 1.3333 h 2.6667 v 1.3333 h 2.6666 v 1.3334 h 2.6667 v 1.3333 h 2.6667 v 1.3333 h 4 v 1.3334 h 2.6666 v 1.3333 h 4 v 1.3333 h 4 v -1.3333 h -1.3333 v -1.3333 h -1.3333 v -2.6667 h -1.3334 v -1.3333 h -1.3333 v -1.3334 h -1.3333 v -2.6666 h -1.3334 v -1.3334 h -1.3333 v -1.3333 h -1.3333 v -1.3333 h -1.3334 v -2.6667 h -1.3333 v -1.3333 h -1.3333 v -1.3334 h -1.3334 v -1.3333 h -1.3333 v -1.3333 h -1.3333 v -1.3334 h -1.3334 v -1.3333 h -2.6666 v -1.3333 h -1.3334 v -1.3334 h -1.3333 v -1.3333 h -1.3333 v -1.3333 h -2.6667 v -1.3334 h -1.3333 v -1.3333 h 24 v -1.3333 h 6.6666 v -1.3334 h 5.3334 v -1.3333 h 5.3333 v -1.3333 h 2.6667 v -1.3334 h -2.6667 v -1.3333 h -2.6667 v -1.3333 h -4 v -1.3334 h -5.3333 v -1.3333 h -5.3333 v -1.3333 h -6.6667 v -1.3334 h -25.3333 m 1.3333,29.3334 v 1.3333 h -1.3333 v -1.3333 z"
       id="path238" />
  </g>
</svg>
