<svg width="33" height="43" viewBox="0 0 33 43" fill="none" xmlns="http://www.w3.org/2000/svg">
<path d="M18.8125 11.4219V0H2.01562C0.898633 0 0 0.898633 0 2.01562V40.9844C0 42.1014 0.898633 43 2.01562 43H30.2344C31.3514 43 32.25 42.1014 32.25 40.9844V13.4375H20.8281C19.7195 13.4375 18.8125 12.5305 18.8125 11.4219ZM5.375 6.04688C5.375 5.67566 5.67566 5.375 6.04688 5.375H12.7656C13.1368 5.375 13.4375 5.67566 13.4375 6.04688V7.39062C13.4375 7.76184 13.1368 8.0625 12.7656 8.0625H6.04688C5.67566 8.0625 5.375 7.76184 5.375 7.39062V6.04688ZM5.375 11.4219C5.375 11.0507 5.67566 10.75 6.04688 10.75H12.7656C13.1368 10.75 13.4375 11.0507 13.4375 11.4219V12.7656C13.4375 13.1368 13.1368 13.4375 12.7656 13.4375H6.04688C5.67566 13.4375 5.375 13.1368 5.375 12.7656V11.4219ZM21.568 32.25H25.5312C26.2737 32.25 26.875 32.8513 26.875 33.5938C26.875 34.3362 26.2737 34.9375 25.5312 34.9375H21.568C20.1865 34.9375 18.9418 34.1699 18.3229 32.9336C18.0751 32.4364 17.6434 32.3861 17.4688 32.3861C17.2941 32.3861 16.8624 32.4356 16.6272 32.9059L15.9831 34.1942C15.8715 34.4174 15.7 34.6052 15.4877 34.7363C15.2754 34.8674 15.0308 34.9368 14.7812 34.9367C14.7493 34.9367 14.7183 34.935 14.6855 34.9325C14.1438 34.8947 13.6777 34.5335 13.5072 34.0179L12.0938 29.78L11.2027 32.4574C10.708 33.9406 9.32311 34.9375 7.75932 34.9375H6.71875C5.97633 34.9375 5.375 34.3362 5.375 33.5938C5.375 32.8513 5.97633 32.25 6.71875 32.25H7.75932C8.16496 32.25 8.52441 31.9913 8.65291 31.6067L10.1806 27.0178C10.4577 26.1939 11.2254 25.6396 12.0938 25.6396C12.9621 25.6396 13.7298 26.193 14.0061 27.0178L15.1718 30.5149C16.8321 29.1552 19.7111 29.7002 20.7147 31.7041C20.8844 32.0451 21.2153 32.25 21.568 32.25ZM31.6621 8.81836L23.44 0.587891C23.0621 0.209961 22.5498 0 22.0123 0H21.5V10.75H32.25V10.2377C32.25 9.70859 32.04 9.19629 31.6621 8.81836Z" fill="#0E654D"/>
</svg>
