<svg width="56" height="43" viewBox="0 0 56 43" fill="none" xmlns="http://www.w3.org/2000/svg">
<path d="M26.915 11.1553L9.21675 25.7318V41.4641C9.21675 41.8715 9.37857 42.2621 9.6666 42.5502C9.95464 42.8382 10.3453 43 10.7526 43L21.5096 42.9722C21.9156 42.9701 22.3043 42.8074 22.5907 42.5196C22.877 42.2318 23.0378 41.8423 23.0378 41.4363V32.2488C23.0378 31.8415 23.1996 31.4508 23.4877 31.1628C23.7757 30.8747 24.1663 30.7129 24.5737 30.7129H30.7172C31.1246 30.7129 31.5152 30.8747 31.8033 31.1628C32.0913 31.4508 32.2531 31.8415 32.2531 32.2488V41.4296C32.2525 41.6317 32.2917 41.8319 32.3686 42.0188C32.4456 42.2057 32.5586 42.3756 32.7013 42.5187C32.844 42.6618 33.0135 42.7754 33.2001 42.8529C33.3868 42.9304 33.5869 42.9702 33.789 42.9702L44.5421 43C44.9495 43 45.3401 42.8382 45.6282 42.5502C45.9162 42.2621 46.078 41.8715 46.078 41.4641V25.7213L28.3836 11.1553C28.1756 10.9877 27.9165 10.8962 27.6493 10.8962C27.3821 10.8962 27.123 10.9877 26.915 11.1553V11.1553ZM54.871 21.0628L46.846 14.4479V1.15191C46.846 0.846408 46.7246 0.553414 46.5086 0.337388C46.2925 0.121362 45.9995 0 45.694 0H40.3184C40.0129 0 39.7199 0.121362 39.5039 0.337388C39.2879 0.553414 39.1665 0.846408 39.1665 1.15191V8.12196L30.5723 1.05112C29.7475 0.372432 28.7126 0.00135671 27.6445 0.00135671C26.5764 0.00135671 25.5415 0.372432 24.7167 1.05112L0.418048 21.0628C0.301404 21.1592 0.2049 21.2776 0.13405 21.4113C0.0631997 21.545 0.0193913 21.6914 0.00512809 21.8421C-0.00913511 21.9927 0.00642639 22.1447 0.0509235 22.2894C0.0954205 22.434 0.167981 22.5684 0.264459 22.685L2.71228 25.6608C2.80849 25.7778 2.92684 25.8747 3.06054 25.9459C3.19424 26.0171 3.34067 26.0612 3.49144 26.0757C3.64222 26.0903 3.79438 26.0749 3.93922 26.0306C4.08406 25.9862 4.21873 25.9137 4.33552 25.8173L26.915 7.21962C27.123 7.05195 27.3821 6.96051 27.6493 6.96051C27.9165 6.96051 28.1756 7.05195 28.3836 7.21962L50.9641 25.8173C51.0806 25.9138 51.2151 25.9863 51.3597 26.0308C51.5044 26.0753 51.6564 26.0909 51.807 26.0766C51.9577 26.0623 52.104 26.0185 52.2378 25.9477C52.3715 25.8768 52.4899 25.7803 52.5863 25.6637L55.0341 22.6879C55.1305 22.5707 55.2028 22.4355 55.2467 22.2902C55.2907 22.145 55.3055 21.9924 55.2904 21.8414C55.2752 21.6904 55.2304 21.5439 55.1584 21.4102C55.0864 21.2766 54.9887 21.1585 54.871 21.0628V21.0628Z" fill="#0E654D"/>
</svg>
