<svg width="27" height="43" viewBox="0 0 27 43" fill="none" xmlns="http://www.w3.org/2000/svg">
<path d="M22.8438 0H4.03125C1.80566 0 0 1.80566 0 4.03125V38.9688C0 41.1943 1.80566 43 4.03125 43H22.8438C25.0693 43 26.875 41.1943 26.875 38.9688V4.03125C26.875 1.80566 25.0693 0 22.8438 0ZM13.4375 40.3125C11.951 40.3125 10.75 39.1115 10.75 37.625C10.75 36.1385 11.951 34.9375 13.4375 34.9375C14.924 34.9375 16.125 36.1385 16.125 37.625C16.125 39.1115 14.924 40.3125 13.4375 40.3125ZM22.8438 31.2422C22.8438 31.7965 22.3902 32.25 21.8359 32.25H5.03906C4.48477 32.25 4.03125 31.7965 4.03125 31.2422V5.03906C4.03125 4.48477 4.48477 4.03125 5.03906 4.03125H21.8359C22.3902 4.03125 22.8438 4.48477 22.8438 5.03906V31.2422Z" fill="#0E654D"/>
</svg>
