<?xml version="1.0" encoding="UTF-8" standalone="no"?>
<!-- Created with Inkscape (http://www.inkscape.org/) -->

<svg
   width="310mm"
   height="80mm"
   viewBox="0 0 310 80"
   version="1.1"
   id="svg5277"
   inkscape:version="1.2.1 (9c6d41e410, 2022-07-14)"
   sodipodi:docname="panenin-logo.svg"
   xmlns:inkscape="http://www.inkscape.org/namespaces/inkscape"
   xmlns:sodipodi="http://sodipodi.sourceforge.net/DTD/sodipodi-0.dtd"
   xmlns="http://www.w3.org/2000/svg"
   xmlns:svg="http://www.w3.org/2000/svg">
  <sodipodi:namedview
     id="namedview5279"
     pagecolor="#ffffff"
     bordercolor="#000000"
     borderopacity="0.25"
     inkscape:showpageshadow="2"
     inkscape:pageopacity="0.0"
     inkscape:pagecheckerboard="0"
     inkscape:deskcolor="#d1d1d1"
     inkscape:document-units="mm"
     showgrid="false"
     inkscape:zoom="0.72515432"
     inkscape:cx="397.84635"
     inkscape:cy="451.62801"
     inkscape:window-width="1920"
     inkscape:window-height="1001"
     inkscape:window-x="-9"
     inkscape:window-y="-9"
     inkscape:window-maximized="1"
     inkscape:current-layer="layer1" />
  <defs
     id="defs5274">
    <clipPath
       clipPathUnits="userSpaceOnUse"
       id="clipPath5074">
      <path
         d="M 0,1000 H 1000 V 0 H 0 Z"
         id="path5072" />
    </clipPath>
  </defs>
  <g
     inkscape:label="Layer 1"
     inkscape:groupmode="layer"
     id="layer1">
    <g
       id="g5068"
       transform="matrix(0.35277777,0,0,-0.35277777,-20.59157,216.15912)">
      <g
         id="g5070"
         clip-path="url(#clipPath5074)">
        <g
           id="g5076"
           transform="translate(280.501,463.4479)">
          <path
             d="m 0,0 c -5.189,-5.661 -11.891,-8.492 -20.078,-8.492 -8.353,0 -15.152,2.831 -20.439,8.492 -5.272,5.675 -7.908,13.071 -7.908,22.215 0,9.13 2.636,16.539 7.908,22.201 5.287,5.675 12.086,8.505 20.439,8.505 8.187,0 14.889,-2.83 20.078,-8.505 C 5.204,38.754 7.798,31.345 7.798,22.215 7.798,13.071 5.204,5.675 0,0 M 7.798,81.269 V 65.673 c -8.977,11.974 -20.785,17.955 -35.438,17.955 -16.22,0 -29.375,-5.898 -39.448,-17.705 -10.074,-11.822 -15.124,-26.392 -15.124,-43.708 0,-17.331 5.05,-31.9 15.124,-43.708 10.073,-11.808 23.228,-17.719 39.448,-17.719 14.653,0 26.461,5.911 35.438,17.719 v -15.346 h 31.65 V 81.269 Z"
             style="fill:#094f3c;fill-opacity:1;fill-rule:nonzero;stroke:none"
             id="path5078" />
        </g>
        <g
           id="g5080"
           transform="translate(449.6436,532.7839)">
          <path
             d="m 0,0 c -6.147,9.533 -17.095,14.292 -32.843,14.292 -15.596,0 -27.876,-5.897 -36.854,-17.705 v 15.346 h -31.65 v -118.108 h 31.65 v 59.054 c 0,9.13 2.443,16.539 7.327,22.201 4.884,5.675 11.336,8.505 19.37,8.505 8.505,0 14.014,-2.164 16.54,-6.493 2.511,-4.329 3.773,-11.614 3.773,-21.854 v -61.413 H 9.199 v 64.951 C 9.199,-23.269 6.133,-9.519 0,0"
             style="fill:#094f3c;fill-opacity:1;fill-rule:nonzero;stroke:none"
             id="path5082" />
        </g>
        <g
           id="g5084"
           transform="translate(511.709,493.4333)">
          <path
             d="M 0,0 C 0,0 9.671,42.889 55.238,23.991 55.238,23.991 44.291,-18.649 0,0 m 86.042,-6.827 c 0,16.526 -5.592,30.748 -16.776,42.64 -11.183,11.891 -24.643,17.83 -40.391,17.83 -17.483,0 -32.122,-5.981 -43.944,-17.955 -11.808,-11.961 -17.719,-26.53 -17.719,-43.694 0,-19.218 6.258,-34.218 18.787,-45.013 12.516,-10.781 27.834,-16.178 45.942,-16.178 15.915,0 30.79,4.009 44.651,12.044 l -11.807,23.865 c -9.297,-5.356 -20.078,-8.034 -32.372,-8.034 -17.636,0 -28.417,7.563 -32.358,22.673 h 85.043 z"
             style="fill:#094f3c;fill-opacity:1;fill-rule:nonzero;stroke:none"
             id="path5086" />
        </g>
        <g
           id="g5088"
           transform="translate(721.5342,532.7839)">
          <path
             d="m 0,0 c -6.147,9.533 -17.095,14.292 -32.843,14.292 -15.596,0 -27.876,-5.897 -36.854,-17.705 v 15.346 h -31.65 v -118.108 h 31.65 v 59.054 c 0,9.13 2.443,16.539 7.327,22.201 4.884,5.675 11.336,8.505 19.37,8.505 8.505,0 14.014,-2.164 16.54,-6.493 2.511,-4.329 3.773,-11.614 3.773,-21.854 v -61.413 h 31.9 v 64.951 C 9.213,-23.269 6.133,-9.519 0,0"
             style="fill:#094f3c;fill-opacity:1;fill-rule:nonzero;stroke:none"
             id="path5090" />
        </g>
        <g
           id="g5092"
           transform="translate(756.7813,528.8918)">
          <path
             d="M 0,0 V -102.283 H 31.65 V 0 c 0,8.74 -7.085,15.825 -15.825,15.825 C 7.085,15.825 0,8.74 0,0"
             style="fill:#f69232;fill-opacity:1;fill-rule:nonzero;stroke:none"
             id="path5094" />
        </g>
        <g
           id="g5096"
           transform="translate(783.7833,575.2702)">
          <path
             d="m 0,0 c -3.094,3.108 -6.813,4.648 -11.156,4.648 -4.218,0 -7.867,-1.54 -10.962,-4.648 -3.108,-3.094 -4.648,-6.813 -4.648,-11.156 0,-4.218 1.54,-7.867 4.648,-10.975 3.095,-3.095 6.744,-4.635 10.962,-4.635 4.343,0 8.062,1.54 11.156,4.635 3.108,3.108 4.648,6.757 4.648,10.975 C 4.648,-6.813 3.108,-3.094 0,0"
             style="fill:#f69232;fill-opacity:1;fill-rule:nonzero;stroke:none"
             id="path5098" />
        </g>
        <g
           id="g5100"
           transform="translate(918.067,532.7839)">
          <path
             d="m 0,0 c -6.147,9.533 -17.094,14.292 -32.843,14.292 -15.582,0 -27.876,-5.897 -36.854,-17.705 v 15.346 h -31.65 v -118.108 h 31.65 v 59.054 c 0,9.13 2.442,16.539 7.326,22.201 4.885,5.675 11.337,8.505 19.371,8.505 8.505,0 14.014,-2.164 16.54,-6.493 2.525,-4.329 3.773,-11.614 3.773,-21.854 v -61.413 h 31.9 v 64.951 C 9.213,-23.269 6.133,-9.519 0,0"
             style="fill:#094f3c;fill-opacity:1;fill-rule:nonzero;stroke:none"
             id="path5102" />
        </g>
        <g
           id="g5104"
           transform="translate(140.7169,456.8381)">
          <path
             d="m 0,0 c 3.333,1.986 6.03,4.576 8.086,7.769 2.056,3.191 3.513,6.916 4.365,11.173 0.851,4.255 1.276,8.583 1.276,12.981 0,4.397 -0.463,8.726 -1.383,12.984 -0.925,4.255 -2.447,8.05 -4.576,11.385 -2.128,3.333 -4.861,6.029 -8.194,8.088 -3.334,2.054 -7.416,3.084 -12.237,3.084 -4.969,0 -9.119,-1.03 -12.45,-3.084 -3.335,-2.059 -6.033,-4.719 -8.086,-7.982 -2.059,-3.265 -3.512,-7.022 -4.364,-11.279 -0.852,-4.257 -1.276,-8.656 -1.276,-13.196 0,-4.398 0.458,-8.726 1.382,-12.981 0.921,-4.257 2.411,-7.982 4.47,-11.173 2.055,-3.193 4.788,-5.783 8.193,-7.769 3.405,-1.988 7.519,-2.979 12.344,-2.979 4.965,0 9.116,0.991 12.45,2.979 M -39.265,87.258 V 73.211 h 0.426 c 3.686,5.959 8.369,10.285 14.045,12.982 5.672,2.695 11.918,4.045 18.728,4.045 8.652,0 16.103,-1.633 22.348,-4.895 6.241,-3.266 11.419,-7.592 15.535,-12.984 4.114,-5.393 7.162,-11.671 9.152,-18.833 1.984,-7.168 2.979,-14.652 2.979,-22.454 0,-7.378 -0.995,-14.471 -2.979,-21.282 -1.99,-6.811 -5.002,-12.842 -9.045,-18.09 -4.044,-5.251 -9.082,-9.437 -15.112,-12.556 -6.031,-3.119 -13.088,-4.683 -21.174,-4.683 -6.811,0 -13.089,1.385 -18.835,4.15 -5.747,2.767 -10.466,6.844 -14.153,12.239 h -0.425 v -52.142 h -30.222 v 148.55 z"
             style="fill:#094f3c;fill-opacity:1;fill-rule:nonzero;stroke:none"
             id="path5106" />
        </g>
        <g
           id="g5108"
           transform="translate(737.6998,562.4587)">
          <path
             d="M 0,0 C 0,0 32.721,18.678 69.813,0 L 36.166,41.995 Z"
             style="fill:#094f3c;fill-opacity:1;fill-rule:nonzero;stroke:none"
             id="path5110" />
        </g>
      </g>
    </g>
  </g>
</svg>
