<?xml version="1.0" encoding="UTF-8" standalone="no"?>
<!-- Created with Inkscape (http://www.inkscape.org/) -->

<svg
   width="210mm"
   height="60mm"
   viewBox="0 0 210 60"
   version="1.1"
   id="svg3820"
   inkscape:version="1.2.1 (9c6d41e410, 2022-07-14)"
   sodipodi:docname="panenin-logo-white.svg"
   xmlns:inkscape="http://www.inkscape.org/namespaces/inkscape"
   xmlns:sodipodi="http://sodipodi.sourceforge.net/DTD/sodipodi-0.dtd"
   xmlns="http://www.w3.org/2000/svg"
   xmlns:svg="http://www.w3.org/2000/svg">
  <sodipodi:namedview
     id="namedview3822"
     pagecolor="#ffffff"
     bordercolor="#000000"
     borderopacity="0.25"
     inkscape:showpageshadow="2"
     inkscape:pageopacity="0.0"
     inkscape:pagecheckerboard="0"
     inkscape:deskcolor="#d1d1d1"
     inkscape:document-units="mm"
     showgrid="false"
     inkscape:zoom="0.72515432"
     inkscape:cx="397.84635"
     inkscape:cy="280.62992"
     inkscape:window-width="1920"
     inkscape:window-height="1001"
     inkscape:window-x="-9"
     inkscape:window-y="-9"
     inkscape:window-maximized="1"
     inkscape:current-layer="layer1" />
  <defs
     id="defs3817">
    <clipPath
       clipPathUnits="userSpaceOnUse"
       id="clipPath1186">
      <path
         d="M 0,1080 H 1080 V 0 H 0 Z"
         id="path1184" />
    </clipPath>
  </defs>
  <g
     inkscape:label="Layer 1"
     inkscape:groupmode="layer"
     id="layer1">
    <g
       id="g1182"
       clip-path="url(#clipPath1186)"
       transform="matrix(0.35277777,0,0,-0.35277777,-167.12964,367.78824)">
      <g
         id="g1188"
         transform="translate(639.4314,937.7947)">
        <path
           d="m 0,0 c -2.979,-3.25 -6.825,-4.874 -11.524,-4.874 -4.794,0 -8.697,1.624 -11.731,4.874 -3.027,3.257 -4.54,7.502 -4.54,12.75 0,5.241 1.513,9.493 4.54,12.743 3.034,3.257 6.937,4.882 11.731,4.882 4.699,0 8.545,-1.625 11.524,-4.882 C 2.986,22.243 4.476,17.991 4.476,12.75 4.476,7.502 2.986,3.257 0,0 m 4.476,46.645 v -8.952 c -5.153,6.873 -11.931,10.306 -20.341,10.306 -9.309,0 -16.86,-3.385 -22.641,-10.162 -5.782,-6.785 -8.681,-15.148 -8.681,-25.087 0,-9.947 2.899,-18.309 8.681,-25.086 5.781,-6.778 13.332,-10.17 22.641,-10.17 8.41,0 15.188,3.392 20.341,10.17 v -8.809 h 18.166 v 67.79 z"
           style="fill:#ffffff;fill-opacity:1;fill-rule:nonzero;stroke:none"
           id="path1190" />
      </g>
      <g
         id="g1192"
         transform="translate(736.5129,977.5906)">
        <path
           d="m 0,0 c -3.528,5.472 -9.812,8.203 -18.851,8.203 -8.952,0 -16,-3.385 -21.152,-10.162 V 6.849 H -58.169 V -60.94 h 18.166 v 33.894 c 0,5.241 1.401,9.493 4.205,12.743 2.803,3.257 6.506,4.882 11.117,4.882 4.882,0 8.044,-1.243 9.493,-3.727 1.442,-2.485 2.167,-6.666 2.167,-12.544 V -60.94 H 5.28 v 37.279 C 5.28,-13.355 3.52,-5.463 0,0"
           style="fill:#ffffff;fill-opacity:1;fill-rule:nonzero;stroke:none"
           id="path1194" />
      </g>
      <g
         id="g1196"
         transform="translate(772.136,955.0047)">
        <path
           d="M 0,0 C 0,0 5.551,24.617 31.705,13.77 31.705,13.77 25.421,-10.704 0,0 m 49.385,-3.918 c 0,9.485 -3.21,17.648 -9.629,24.473 -6.419,6.825 -14.144,10.234 -23.183,10.234 -10.034,0 -18.437,-3.433 -25.222,-10.306 -6.777,-6.864 -10.17,-15.227 -10.17,-25.078 0,-11.03 3.592,-19.639 10.783,-25.836 7.184,-6.188 15.976,-9.285 26.369,-9.285 9.135,0 17.672,2.301 25.628,6.912 l -6.777,13.699 c -5.336,-3.075 -11.524,-4.612 -18.58,-4.612 -10.123,0 -16.311,4.341 -18.572,13.013 h 48.811 z"
           style="fill:#ffffff;fill-opacity:1;fill-rule:nonzero;stroke:none"
           id="path1198" />
      </g>
      <g
         id="g1200"
         transform="translate(892.5681,977.5906)">
        <path
           d="m 0,0 c -3.528,5.472 -9.812,8.203 -18.851,8.203 -8.951,0 -16,-3.385 -21.152,-10.162 V 6.849 H -58.169 V -60.94 h 18.166 v 33.894 c 0,5.241 1.401,9.493 4.205,12.743 2.803,3.257 6.506,4.882 11.117,4.882 4.883,0 8.044,-1.243 9.493,-3.727 1.442,-2.485 2.167,-6.666 2.167,-12.544 V -60.94 H 5.288 v 37.279 C 5.288,-13.355 3.52,-5.463 0,0"
           style="fill:#ffffff;fill-opacity:1;fill-rule:nonzero;stroke:none"
           id="path1202" />
      </g>
      <g
         id="g1204"
         transform="translate(912.7986,975.3568)">
        <path
           d="M 0,0 V -58.707 H 18.166 V 0 C 18.166,5.017 14.1,9.083 9.083,9.083 4.067,9.083 0,5.017 0,0"
           style="fill:#ffffff;fill-opacity:1;fill-rule:nonzero;stroke:none"
           id="path1206" />
      </g>
      <g
         id="g1208"
         transform="translate(928.2966,1001.9764)">
        <path
           d="m 0,0 c -1.776,1.784 -3.91,2.668 -6.403,2.668 -2.421,0 -4.515,-0.884 -6.291,-2.668 -1.785,-1.776 -2.668,-3.91 -2.668,-6.403 0,-2.421 0.883,-4.516 2.668,-6.3 1.776,-1.776 3.87,-2.66 6.291,-2.66 2.493,0 4.627,0.884 6.403,2.66 1.784,1.784 2.668,3.879 2.668,6.3 C 2.668,-3.91 1.784,-1.776 0,0"
           style="fill:#ffffff;fill-opacity:1;fill-rule:nonzero;stroke:none"
           id="path1210" />
      </g>
      <g
         id="g1212"
         transform="translate(1005.3708,977.5906)">
        <path
           d="m 0,0 c -3.528,5.472 -9.812,8.203 -18.851,8.203 -8.943,0 -16,-3.385 -21.152,-10.162 V 6.849 H -58.169 V -60.94 h 18.166 v 33.894 c 0,5.241 1.401,9.493 4.205,12.743 2.803,3.257 6.506,4.882 11.117,4.882 4.882,0 8.044,-1.243 9.493,-3.727 1.45,-2.485 2.167,-6.666 2.167,-12.544 V -60.94 H 5.288 v 37.279 C 5.288,-13.355 3.52,-5.463 0,0"
           style="fill:#ffffff;fill-opacity:1;fill-rule:nonzero;stroke:none"
           id="path1214" />
      </g>
      <g
         id="g1216"
         transform="translate(559.2,934.0008)">
        <path
           d="m 0,0 c 1.913,1.14 3.461,2.626 4.642,4.459 1.179,1.832 2.015,3.97 2.504,6.413 0.489,2.442 0.732,4.926 0.732,7.451 0,2.523 -0.265,5.009 -0.793,7.452 -0.53,2.442 -1.404,4.621 -2.627,6.534 -1.221,1.913 -2.789,3.461 -4.702,4.643 -1.914,1.178 -4.256,1.77 -7.024,1.77 -2.852,0 -5.234,-0.592 -7.146,-1.77 -1.914,-1.182 -3.462,-2.709 -4.641,-4.581 -1.182,-1.875 -2.016,-4.031 -2.505,-6.475 -0.489,-2.443 -0.732,-4.967 -0.732,-7.573 0,-2.525 0.263,-5.009 0.793,-7.451 0.529,-2.443 1.384,-4.581 2.565,-6.413 1.18,-1.833 2.749,-3.319 4.704,-4.459 1.954,-1.141 4.315,-1.71 7.084,-1.71 2.85,0 5.232,0.569 7.146,1.71 m -22.537,50.083 v -8.062 h 0.245 c 2.116,3.419 4.804,5.902 8.062,7.45 3.255,1.547 6.84,2.322 10.749,2.322 4.966,0 9.242,-0.937 12.826,-2.81 3.583,-1.874 6.554,-4.357 8.917,-7.451 2.361,-3.096 4.111,-6.699 5.253,-10.81 1.139,-4.114 1.71,-8.41 1.71,-12.888 0,-4.235 -0.571,-8.306 -1.71,-12.215 -1.142,-3.909 -2.871,-7.371 -5.192,-10.383 -2.321,-3.014 -5.212,-5.417 -8.673,-7.207 -3.462,-1.79 -7.512,-2.688 -12.153,-2.688 -3.91,0 -7.513,0.795 -10.811,2.383 -3.299,1.588 -6.007,3.927 -8.123,7.024 h -0.245 V -35.18 h -17.346 v 85.263 z"
           style="fill:#ffffff;fill-opacity:1;fill-rule:nonzero;stroke:none"
           id="path1218" />
      </g>
      <g
         id="g1220"
         transform="translate(901.8464,994.6234)">
        <path
           d="M 0,0 C 0,0 18.781,10.72 40.071,0 L 20.758,24.104 Z"
           style="fill:#ffffff;fill-opacity:1;fill-rule:nonzero;stroke:none"
           id="path1222" />
      </g>
    </g>
  </g>
</svg>
